<?xml version="1.0" encoding="UTF-8" standalone="no"?>
<svg
   xmlns:dc="http://purl.org/dc/elements/1.1/"
   xmlns:cc="http://creativecommons.org/ns#"
   xmlns:rdf="http://www.w3.org/1999/02/22-rdf-syntax-ns#"
   xmlns:svg="http://www.w3.org/2000/svg"
   xmlns="http://www.w3.org/2000/svg"
   xmlns:sodipodi="http://sodipodi.sourceforge.net/DTD/sodipodi-0.dtd"
   xmlns:inkscape="http://www.inkscape.org/namespaces/inkscape"
   inkscape:export-ydpi="96"
   inkscape:export-xdpi="96"
   inkscape:export-filename="C:\Users\Kai\Documents\World of Padman\SVN Repository\trunk\wop\icons\hint_textchat.png"
   sodipodi:docname="wop.svg"
   inkscape:version="1.0.2-2 (e86c870879, 2021-01-15)"
   id="svg8"
   version="1.1"
   viewBox="0 0 67.733332 67.733335"
   height="256"
   width="256">
  <defs
     id="defs2">
    <pattern
       id="EMFhbasepattern"
       patternUnits="userSpaceOnUse"
       width="6"
       height="6"
       x="0"
       y="0" />
    <filter
       height="1.7513332"
       y="-0.3756666"
       width="1.4994092"
       x="-0.24970461"
       id="filter1661"
       style="color-interpolation-filters:sRGB"
       inkscape:collect="always">
      <feGaussianBlur
         id="feGaussianBlur1663"
         stdDeviation="3.8054764"
         inkscape:collect="always" />
    </filter>
    <filter
       id="filter1751"
       inkscape:label="Clean Edges"
       style="color-interpolation-filters:sRGB;">
      <feGaussianBlur
         id="feGaussianBlur1745"
         result="blur"
         stdDeviation="1" />
      <feComposite
         id="feComposite1747"
         result="composite1"
         operator="in"
         in2="blur"
         in="SourceGraphic" />
      <feComposite
         id="feComposite1749"
         result="composite2"
         operator="in"
         k2="1"
         in2="composite1"
         in="composite1" />
    </filter>
    <filter
       id="filter1751-3"
       inkscape:label="Clean Edges"
       style="color-interpolation-filters:sRGB">
      <feGaussianBlur
         id="feGaussianBlur1745-3"
         result="blur"
         stdDeviation="1" />
      <feComposite
         id="feComposite1747-6"
         result="composite1"
         operator="in"
         in2="blur"
         in="SourceGraphic" />
      <feComposite
         id="feComposite1749-1"
         result="composite2"
         operator="in"
         in2="composite1"
         in="composite1" />
    </filter>
    <filter
       id="filter886"
       inkscape:label="Clean Edges"
       style="color-interpolation-filters:sRGB">
      <feGaussianBlur
         id="feGaussianBlur880"
         result="blur"
         stdDeviation="1" />
      <feComposite
         id="feComposite882"
         result="composite1"
         operator="in"
         in2="blur"
         in="SourceGraphic" />
      <feComposite
         id="feComposite884"
         result="composite2"
         operator="in"
         in2="composite1"
         in="composite1" />
    </filter>
    <filter
       id="filter894"
       inkscape:label="Clean Edges"
       style="color-interpolation-filters:sRGB">
      <feGaussianBlur
         id="feGaussianBlur888"
         result="blur"
         stdDeviation="1" />
      <feComposite
         id="feComposite890"
         result="composite1"
         operator="in"
         in2="blur"
         in="SourceGraphic" />
      <feComposite
         id="feComposite892"
         result="composite2"
         operator="in"
         in2="composite1"
         in="composite1" />
    </filter>
    <filter
       id="filter902"
       inkscape:label="Clean Edges"
       style="color-interpolation-filters:sRGB">
      <feGaussianBlur
         id="feGaussianBlur896"
         result="blur"
         stdDeviation="1" />
      <feComposite
         id="feComposite898"
         result="composite1"
         operator="in"
         in2="blur"
         in="SourceGraphic" />
      <feComposite
         id="feComposite900"
         result="composite2"
         operator="in"
         in2="composite1"
         in="composite1" />
    </filter>
    <filter
       id="filter910"
       inkscape:label="Clean Edges"
       style="color-interpolation-filters:sRGB">
      <feGaussianBlur
         id="feGaussianBlur904"
         result="blur"
         stdDeviation="1" />
      <feComposite
         id="feComposite906"
         result="composite1"
         operator="in"
         in2="blur"
         in="SourceGraphic" />
      <feComposite
         id="feComposite908"
         result="composite2"
         operator="in"
         in2="composite1"
         in="composite1" />
    </filter>
    <filter
       id="filter918"
       inkscape:label="Clean Edges"
       style="color-interpolation-filters:sRGB">
      <feGaussianBlur
         id="feGaussianBlur912"
         result="blur"
         stdDeviation="1" />
      <feComposite
         id="feComposite914"
         result="composite1"
         operator="in"
         in2="blur"
         in="SourceGraphic" />
      <feComposite
         id="feComposite916"
         result="composite2"
         operator="in"
         in2="composite1"
         in="composite1" />
    </filter>
    <filter
       id="filter926"
       inkscape:label="Clean Edges"
       style="color-interpolation-filters:sRGB">
      <feGaussianBlur
         id="feGaussianBlur920"
         result="blur"
         stdDeviation="1" />
      <feComposite
         id="feComposite922"
         result="composite1"
         operator="in"
         in2="blur"
         in="SourceGraphic" />
      <feComposite
         id="feComposite924"
         result="composite2"
         operator="in"
         in2="composite1"
         in="composite1" />
    </filter>
    <filter
       id="filter934"
       inkscape:label="Clean Edges"
       style="color-interpolation-filters:sRGB">
      <feGaussianBlur
         id="feGaussianBlur928"
         result="blur"
         stdDeviation="1" />
      <feComposite
         id="feComposite930"
         result="composite1"
         operator="in"
         in2="blur"
         in="SourceGraphic" />
      <feComposite
         id="feComposite932"
         result="composite2"
         operator="in"
         in2="composite1"
         in="composite1" />
    </filter>
    <filter
       id="filter942"
       inkscape:label="Clean Edges"
       style="color-interpolation-filters:sRGB">
      <feGaussianBlur
         id="feGaussianBlur936"
         result="blur"
         stdDeviation="1" />
      <feComposite
         id="feComposite938"
         result="composite1"
         operator="in"
         in2="blur"
         in="SourceGraphic" />
      <feComposite
         id="feComposite940"
         result="composite2"
         operator="in"
         in2="composite1"
         in="composite1" />
    </filter>
    <filter
       id="filter950"
       inkscape:label="Clean Edges"
       style="color-interpolation-filters:sRGB">
      <feGaussianBlur
         id="feGaussianBlur944"
         result="blur"
         stdDeviation="1" />
      <feComposite
         id="feComposite946"
         result="composite1"
         operator="in"
         in2="blur"
         in="SourceGraphic" />
      <feComposite
         id="feComposite948"
         result="composite2"
         operator="in"
         in2="composite1"
         in="composite1" />
    </filter>
    <filter
       id="filter958"
       inkscape:label="Clean Edges"
       style="color-interpolation-filters:sRGB">
      <feGaussianBlur
         id="feGaussianBlur952"
         result="blur"
         stdDeviation="1" />
      <feComposite
         id="feComposite954"
         result="composite1"
         operator="in"
         in2="blur"
         in="SourceGraphic" />
      <feComposite
         id="feComposite956"
         result="composite2"
         operator="in"
         in2="composite1"
         in="composite1" />
    </filter>
  </defs>
  <sodipodi:namedview
     inkscape:document-rotation="0"
     inkscape:pagecheckerboard="true"
     inkscape:window-maximized="1"
     inkscape:window-y="-8"
     inkscape:window-x="-8"
     inkscape:window-height="1537"
     inkscape:window-width="2560"
     units="px"
     showgrid="false"
     inkscape:current-layer="layer1"
     inkscape:document-units="mm"
     inkscape:cy="125.88172"
     inkscape:cx="67.649421"
     inkscape:zoom="3.4457592"
     inkscape:pageshadow="2"
     inkscape:pageopacity="0.0"
     borderopacity="1.0"
     bordercolor="#666666"
     pagecolor="#ffffff"
     id="base" />
  <metadata
     id="metadata5">
    <rdf:RDF>
      <cc:Work
         rdf:about="">
        <dc:format>image/svg+xml</dc:format>
        <dc:type
           rdf:resource="http://purl.org/dc/dcmitype/StillImage" />
        <dc:title></dc:title>
      </cc:Work>
    </rdf:RDF>
  </metadata>
  <g
     transform="translate(0,-229.26665)"
     id="layer1"
     inkscape:groupmode="layer"
     inkscape:label="Ebene 1">
    <g
       inkscape:export-ydpi="96"
       inkscape:export-xdpi="96"
       inkscape:export-filename="C:\Users\Kai\Documents\World of Padman\SVN Repository\trunk\wop\icons\hint_textchat.png"
       style="filter:url(#filter1751)"
       transform="matrix(0.39792248,0,0,0.46884129,-29.109537,157.73854)"
       id="hint_textchat"
       inkscape:label="wop">
      <title
         id="title881">hint_textchat</title>
      <path
         id="path828"
         d="m 216.60765,295.00568 c -0.93133,-0.14816 -1.96849,-0.40216 -2.30715,-0.57149 -0.3175,-0.16934 -6.96378,-3.78881 -14.77423,-8.06445 -7.81044,-4.27563 -14.43556,-7.91627 -14.77422,-8.0856 -0.55033,-0.29633 -0.95249,-0.23283 -10.22342,1.18532 l -9.63077,1.50283 -13.03857,-0.78316 c -7.17545,-0.42334 -13.73706,-0.78317 -14.60489,-0.8255 -1.48166,-0.0635 -2.13782,-0.27516 -15.04939,-4.8048 -7.40828,-2.60348 -13.67357,-4.84713 -13.9064,-4.99529 -0.38099,-0.23284 -23.93932,-19.32503 -24.489649,-19.85419 -0.148166,-0.10583 -2.24365,-5.71496 -4.677796,-12.44591 -2.43415,-6.73095 -4.52964,-12.46707 -4.6778,-12.7634 -0.23283,-0.46567 -0.0635,-1.96849 1.56632,-14.58373 1.71449,-13.1444 1.86265,-14.07573 2.24365,-14.47789 0.23283,-0.254 4.931797,-5.79963 10.435089,-12.34007 l 10.032926,-11.91675 10.60442,-5.1858 10.62559,-5.16462 14.26623,-3.23848 14.26622,-3.21731 13.12324,0.29633 13.10207,0.27517 12.86924,4.02163 12.86924,4.02164 10.22342,6.56162 c 5.60913,3.5983 10.39276,6.73095 10.60443,6.96378 0.31749,0.35983 15.40922,18.3302 16.23471,19.34619 0.127,0.16933 1.31232,4.97413 2.64581,10.71025 l 2.39182,10.41393 -1.86266,10.75258 c -1.71448,9.84243 -1.90498,10.79492 -2.37064,11.36642 -4.19097,5.54562 -14.18157,18.05503 -14.58373,18.28786 -0.40216,0.23284 -13.25023,10.49859 -14.22389,11.36642 -0.0635,0.0635 2.03198,6.03246 4.65663,13.2714 2.62464,7.23895 4.78363,13.18674 4.78363,13.2079 0,0.0847 -0.508,0.0212 -2.34948,-0.23283 z"
         style="fill:#fee13c;fill-opacity:1;fill-rule:nonzero;stroke:none;stroke-width:0.264583"
         inkscape:connector-curvature="0" />
      <path
         id="path830"
         d="m 216.60765,295.00568 c -0.93133,-0.14816 -1.96849,-0.40216 -2.30715,-0.57149 -0.3175,-0.16934 -6.96378,-3.78881 -14.77423,-8.06445 -7.81044,-4.27563 -14.43556,-7.91627 -14.77422,-8.0856 -0.55033,-0.29633 -0.95249,-0.23283 -10.22342,1.18532 l -9.63077,1.50283 -13.03857,-0.78316 c -7.17545,-0.42334 -13.73706,-0.78317 -14.60489,-0.8255 -1.48166,-0.0635 -2.13782,-0.27516 -15.04939,-4.8048 -7.40828,-2.60348 -13.67357,-4.84713 -13.9064,-4.99529 -0.38099,-0.23284 -23.93932,-19.32503 -24.489649,-19.85419 -0.148166,-0.10583 -2.24365,-5.71496 -4.677796,-12.44591 -2.43415,-6.73095 -4.52964,-12.46707 -4.6778,-12.7634 -0.23283,-0.46567 -0.0635,-1.96849 1.56632,-14.58373 1.71449,-13.1444 1.86265,-14.07573 2.24365,-14.47789 0.23283,-0.254 4.931797,-5.79963 10.435089,-12.34007 l 10.032926,-11.91675 10.60442,-5.1858 10.62559,-5.16462 14.26623,-3.23848 14.26622,-3.21731 13.12324,0.29633 13.10207,0.27517 12.86924,4.02163 12.86924,4.02164 10.22342,6.56162 c 5.60913,3.5983 10.39276,6.73095 10.60443,6.96378 0.31749,0.35983 15.40922,18.3302 16.23471,19.34619 0.127,0.16933 1.31232,4.97413 2.64581,10.71025 l 2.39182,10.41393 -1.86266,10.75258 c -1.71448,9.84243 -1.90498,10.79492 -2.37064,11.36642 -4.19097,5.54562 -14.18157,18.05503 -14.58373,18.28786 -0.40216,0.23284 -13.25023,10.49859 -14.22389,11.36642 -0.0635,0.0635 2.03198,6.03246 4.65663,13.2714 2.62464,7.23895 4.78363,13.18674 4.78363,13.2079 0,0.0847 -0.508,0.0212 -2.34948,-0.23283 z M 109.80144,264.67407 c -3.02682,-3.38664 -7.68345,-8.9746 -13.017409,-15.64205 l -6.561618,-8.2126 -2.963312,-7.83161 -2.96331,-7.85278 1.375822,-9.4826 1.39699,-9.50376 5.249294,-8.3396 5.249295,-8.33961 9.355598,-6.98495 9.3556,-6.98494 13.44073,-6.58279 13.4619,-6.56162 12.42474,-0.48683 12.42474,-0.48683 8.36078,0.74083 c 4.59313,0.42333 8.48777,0.71966 8.6571,0.6985 0.14817,-0.0423 -2.28598,-0.8255 -5.41863,-1.75682 l -5.71496,-1.69332 -11.76858,-0.21167 c -6.47695,-0.10583 -11.83208,-0.23283 -11.91674,-0.27516 -0.0635,-0.0423 -3.42898,0.50799 -7.45061,1.20649 -6.30762,1.10066 -8.33961,1.54515 -14.32973,3.13264 l -6.96378,1.82032 -10.15993,5.2493 -10.15992,5.27046 -8.932269,10.43508 c -4.91063,5.7573 -9.080432,10.64676 -9.270931,10.87959 -0.232831,0.27517 -1.079491,4.08514 -2.793975,12.42474 l -2.49765,12.02258 4.550798,12.06491 c 3.577139,9.56726 4.614298,12.14958 4.995295,12.42474 0.253999,0.21167 4.931797,4.25447 10.413923,9.0381 8.424269,7.30245 11.980249,10.22343 12.445909,10.22343 0.0423,0 -0.0847,-0.16933 -0.27516,-0.40217 z m 76.11477,-101.74741 c -0.0635,-0.0847 -0.16934,-0.0847 -0.23284,0 -0.0635,0.0635 -0.0212,0.10583 0.127,0.10583 0.127,0 0.1905,-0.0423 0.10584,-0.10583 z"
         style="fill:#fdd700;fill-opacity:1;fill-rule:nonzero;stroke:none;stroke-width:0.264583"
         inkscape:connector-curvature="0" />
      <path
         id="path832"
         d="m 216.60765,295.00568 c -0.93133,-0.14816 -1.96849,-0.40216 -2.30715,-0.57149 -0.3175,-0.16934 -6.96378,-3.78881 -14.77423,-8.06445 -7.81044,-4.27563 -14.43556,-7.91627 -14.77422,-8.0856 -0.55033,-0.29633 -0.95249,-0.23283 -10.22342,1.18532 l -9.63077,1.50283 -13.03857,-0.78316 c -7.17545,-0.42334 -13.73706,-0.78317 -14.60489,-0.8255 -1.48166,-0.0635 -2.13782,-0.27516 -15.04939,-4.8048 -7.40828,-2.60348 -13.67357,-4.84713 -13.9064,-4.99529 -0.38099,-0.23284 -23.93932,-19.32503 -24.489649,-19.85419 -0.148166,-0.10583 -2.24365,-5.71496 -4.677796,-12.44591 -2.43415,-6.73095 -4.52964,-12.46707 -4.6778,-12.7634 -0.23283,-0.46567 -0.0635,-1.96849 1.56632,-14.58373 1.71449,-13.1444 1.86265,-14.07573 2.24365,-14.47789 0.23283,-0.254 4.931797,-5.79963 10.435089,-12.34007 l 10.032926,-11.91675 10.60442,-5.1858 10.62559,-5.16462 14.26623,-3.23848 14.26622,-3.21731 13.12324,0.29633 13.10207,0.27517 12.86924,4.02163 12.86924,4.02164 10.22342,6.56162 c 5.60913,3.5983 10.39276,6.73095 10.60443,6.96378 0.31749,0.35983 15.40922,18.3302 16.23471,19.34619 0.127,0.16933 1.31232,4.97413 2.64581,10.71025 l 2.39182,10.41393 -1.86266,10.75258 c -1.71448,9.84243 -1.90498,10.79492 -2.37064,11.36642 -4.19097,5.54562 -14.18157,18.05503 -14.58373,18.28786 -0.40216,0.23284 -13.25023,10.49859 -14.22389,11.36642 -0.0635,0.0635 2.03198,6.03246 4.65663,13.2714 2.62464,7.23895 4.78363,13.18674 4.78363,13.2079 0,0.0847 -0.508,0.0212 -2.34948,-0.23283 z m -104.5414,-30.5221 c 0.84666,-0.3175 1.52399,-0.67733 1.52399,-0.78317 0,-0.10583 -2.01082,-3.28081 -4.4873,-7.09078 -2.45531,-3.7888 -5.03763,-7.85277 -5.73612,-9.0381 l -1.27,-2.11665 -1.71448,-0.97366 c -1.502825,-0.86782 -1.672157,-1.01599 -1.502825,-1.33349 0.148166,-0.29633 0.08467,-0.40216 -0.380997,-0.67733 -1.164158,-0.63499 -1.142991,-0.59266 -0.444496,-1.71448 l 0.634995,-1.05833 -0.952493,-1.56632 c -0.529163,-0.88899 -1.037159,-1.58749 -1.142992,-1.58749 -0.105832,0 -0.84666,0.40217 -1.629821,0.91016 -0.804327,0.508 -1.523989,0.93133 -1.608655,0.93133 -0.08467,0 -0.211665,-0.40217 -0.296331,-0.889 -0.169332,-1.12182 -0.232831,-1.20649 -0.698495,-0.86782 l -0.402163,0.27516 -0.783161,-4.19097 c -0.42333,-2.30715 -0.994826,-5.41862 -1.269991,-6.92145 l -0.486829,-2.70931 0.550329,-3.25964 c 0.317497,-1.79915 1.037159,-5.94779 1.629821,-9.2286 l 1.037159,-5.94779 4.5508,-8.10677 4.571965,-8.12794 7.02728,-3.57714 c 6.87912,-3.51364 7.02728,-3.57714 7.02728,-3.09031 0,0.31749 -0.27516,0.84666 -0.67732,1.35466 -0.381,0.46566 -0.762,0.97365 -0.86783,1.10065 -0.10583,0.14817 0.48683,-0.0847 1.31232,-0.50799 l 1.52399,-0.762 v 0.48683 c 0,0.33867 -0.35983,0.95249 -1.12183,1.86265 -0.59266,0.74083 -1.05832,1.3335 -0.99482,1.3335 0.0423,0 1.01599,-0.74083 2.13782,-1.67216 1.94732,-1.60865 2.01082,-1.69332 1.88382,-2.26482 -0.127,-0.57149 -0.52916,-1.01599 -0.9525,-1.01599 -0.127,-0.0212 -0.23283,-0.0847 -0.23283,-0.14816 0,-0.0847 -0.0635,-0.48684 -0.14816,-0.93133 -0.0847,-0.42333 -0.0847,-0.78316 0,-0.78316 0.0847,0 1.26999,0.254 2.64581,0.55033 1.37582,0.3175 2.64581,0.57149 2.81515,0.57149 0.1905,0 4.3603,-1.65098 9.27093,-3.68297 l 8.9111,-3.66181 13.92756,-2.79397 13.92757,-2.77282 14.54139,-0.27516 c 7.97978,-0.14817 14.73189,-0.29633 14.98589,-0.3175 1.20649,-0.127 -1.75682,-1.14299 -12.84807,-4.4873 l -11.83208,-3.55597 -11.83208,-0.1905 c -6.49812,-0.127 -11.87442,-0.254 -11.93791,-0.29633 -0.0847,-0.0423 -3.45015,0.50799 -7.47178,1.20649 -6.30762,1.10066 -8.33961,1.54515 -14.32973,3.13264 l -6.96378,1.82032 -10.15993,5.2493 -10.15992,5.27046 -8.932269,10.43508 c -4.91063,5.7573 -9.080432,10.64676 -9.270931,10.87959 -0.232831,0.27517 -1.079491,4.08514 -2.793975,12.42474 l -2.49765,12.02258 4.550798,12.06491 c 3.577139,9.56726 4.614298,12.14958 4.995295,12.42474 0.253999,0.21167 4.931797,4.25447 10.413923,9.0381 9.419099,8.17028 11.980249,10.24459 12.636409,10.22343 0.16933,0 0.97366,-0.27517 1.79915,-0.59266 z"
         style="fill:#fdca00;fill-opacity:1;fill-rule:nonzero;stroke:none;stroke-width:0.264583"
         inkscape:connector-curvature="0" />
      <path
         id="path834"
         d="m 216.60765,295.00568 c -0.93133,-0.14816 -1.96849,-0.40216 -2.30715,-0.57149 -0.3175,-0.16934 -6.96378,-3.78881 -14.77423,-8.06445 -7.81044,-4.27563 -14.43556,-7.91627 -14.77422,-8.0856 -0.55033,-0.29633 -0.95249,-0.23283 -10.22342,1.18532 l -9.63077,1.50283 -13.03857,-0.78316 c -7.17545,-0.42334 -13.73706,-0.78317 -14.60489,-0.8255 -1.48166,-0.0635 -2.13782,-0.27516 -15.04939,-4.8048 -7.40828,-2.60348 -13.67357,-4.84713 -13.9064,-4.99529 -0.38099,-0.23284 -23.93932,-19.32503 -24.489649,-19.85419 -0.148166,-0.10583 -2.24365,-5.71496 -4.677796,-12.44591 -2.43415,-6.73095 -4.52964,-12.46707 -4.6778,-12.7634 -0.23283,-0.46567 -0.0635,-1.96849 1.56632,-14.58373 1.71449,-13.1444 1.86265,-14.07573 2.24365,-14.47789 0.23283,-0.254 4.931797,-5.79963 10.435089,-12.34007 l 10.032926,-11.91675 10.60442,-5.1858 10.62559,-5.16462 14.26623,-3.23848 14.26622,-3.21731 13.12324,0.29633 13.10207,0.27517 12.86924,4.02163 12.86924,4.02164 10.22342,6.56162 c 5.60913,3.5983 10.39276,6.73095 10.60443,6.96378 0.31749,0.35983 15.40922,18.3302 16.23471,19.34619 0.127,0.16933 1.31232,4.97413 2.64581,10.71025 l 2.39182,10.41393 -1.86266,10.75258 c -1.71448,9.84243 -1.90498,10.79492 -2.37064,11.36642 -4.19097,5.54562 -14.18157,18.05503 -14.58373,18.28786 -0.40216,0.23284 -13.25023,10.49859 -14.22389,11.36642 -0.0635,0.0635 2.03198,6.03246 4.65663,13.2714 2.62464,7.23895 4.78363,13.18674 4.78363,13.2079 0,0.0847 -0.508,0.0212 -2.34948,-0.23283 z M 116.06672,267.06589 c -0.0635,-0.127 -0.59266,-0.86783 -1.14299,-1.67216 -0.55033,-0.80432 -0.93133,-1.50282 -0.84666,-1.58748 0.0847,-0.0847 3.15381,-1.29116 6.79445,-2.66698 l 6.62512,-2.49765 4.8048,-0.46567 4.78363,-0.46566 7.09078,1.29116 c 3.89464,0.69849 7.09078,1.26999 7.11195,1.24882 0.0423,-0.0847 -8.31844,-13.5889 -8.40311,-13.5889 -0.0423,0 -0.99483,1.92615 -2.09548,4.25447 -1.37583,2.87865 -2.07432,4.1698 -2.18016,4.00047 -0.0847,-0.127 -0.31749,-0.55033 -0.52916,-0.93132 -0.1905,-0.381 -0.42333,-0.65617 -0.50799,-0.61383 -0.0847,0.0635 -0.86783,-1.12183 -1.71449,-2.60348 -0.86783,-1.50283 -2.87865,-4.97413 -4.46614,-7.72578 l -2.89981,-5.01646 -2.47648,-0.8255 -2.49765,-0.82549 -2.70931,2.03198 c -1.48166,1.10066 -2.75165,2.11666 -2.81515,2.24365 -0.0635,0.127 -1.10065,4.3603 -2.28598,9.44027 l -2.20132,9.24976 -0.44449,-0.67733 c -0.23283,-0.35983 -0.55033,-0.76199 -0.67733,-0.86782 -0.14817,-0.127 -1.77799,-2.51882 -3.64064,-5.33396 l -3.36548,-5.1223 -3.3443,-1.92615 c -2.899816,-1.71449 -3.30198,-1.98965 -3.153815,-2.28598 0.148166,-0.27517 0.08467,-0.40217 -0.380997,-0.65617 -0.317497,-0.16933 -0.698495,-0.40216 -0.84666,-0.50799 -0.211665,-0.14817 0.338664,-1.10066 2.857482,-5.01646 1.71448,-2.64582 3.09031,-4.82597 3.04797,-4.82597 -0.0423,0 -2.28598,1.35466 -4.974126,3.04798 -2.66698,1.67215 -4.995296,3.06914 -5.122295,3.13264 -0.190499,0.0847 -0.296331,-0.14817 -0.380997,-0.93132 -0.08467,-0.55033 -0.169332,-1.016 -0.211665,-1.016 -0.04233,0 -0.253999,0.10583 -0.444497,0.21167 -0.190499,0.127 -0.402164,0.1905 -0.444497,0.14816 -0.04233,-0.0423 -0.634995,-3.13264 -1.312323,-6.87911 -1.164159,-6.30762 -1.227658,-6.85795 -1.058326,-7.91628 1.75682,-10.20226 3.069144,-17.20837 3.301976,-17.67403 0.253998,-0.48683 3.746472,-6.73095 7.97978,-14.2874 l 0.86782,-1.52398 7.02728,-3.57714 c 6.77329,-3.45015 7.02728,-3.55598 7.02728,-3.09032 0,0.29633 -0.35983,0.91016 -0.93132,1.65099 l -0.93133,1.16416 1.56632,-0.82549 1.58749,-0.84667 v 0.48684 c 0,0.33866 -0.82549,1.50282 -3.00564,4.1698 -1.62983,2.01081 -3.17498,3.93697 -3.38665,4.27563 -0.46566,0.65616 -4.1063,10.79492 -4.1063,11.40875 0,0.23283 0.29633,2.34948 0.65616,4.7413 0.46567,2.96331 0.762,4.40263 0.9525,4.5508 0.14816,0.127 0.76199,0.67733 1.35465,1.24882 l 1.05833,1.016 1.52399,-0.762 c 0.84666,-0.42333 1.54515,-0.76199 1.56632,-0.78316 0.0212,-0.0212 0.127,-1.67215 0.254,-3.70414 l 0.21166,-3.68297 4.44497,-5.01646 c 2.45531,-2.75165 4.50847,-4.9953 4.59313,-4.97413 0.1905,0.0635 7.13312,7.45061 7.13312,7.61994 0,0.0635 0.29633,0.42333 0.63499,0.78316 0.5715,0.59266 0.71966,0.95249 1.20649,3.04798 0.91016,3.7888 0.84666,3.64064 1.69332,4.19097 0.42333,0.27516 0.84666,0.44449 0.91016,0.40216 0.0635,-0.0423 0.52917,-0.80433 1.03716,-1.67215 l 0.91016,-1.62983 0.14817,-3.80997 0.127,-3.80997 -2.98448,-4.9953 -3.00565,-4.99529 -4.69896,-3.15381 c -2.60348,-1.75682 -5.29163,-3.55598 -5.96896,-4.00047 -0.95249,-0.61383 -1.29115,-0.9525 -1.37582,-1.35466 -0.0635,-0.33866 -0.27516,-0.59266 -0.57149,-0.71966 -0.27517,-0.127 -0.508,-0.23283 -0.52917,-0.23283 -0.14816,-0.0847 -0.35983,-1.75682 -0.23283,-1.75682 0.1905,0 15.47272,3.45014 16.48871,3.7253 1.12183,0.29634 13.31374,8.69944 13.4619,9.2921 0.0635,0.23283 0.33867,0.635 0.635,0.84666 0.44449,0.35983 0.76199,1.16416 2.18015,5.54563 0.93132,2.81514 1.67215,5.12229 1.67215,5.16463 0,0.0212 8.36077,-1.10066 8.5936,-1.16416 0.0212,0 0.127,-0.254 0.254,-0.55033 0.16933,-0.42333 1.10066,-1.10066 4.23331,-3.04798 2.22248,-1.37582 4.1063,-2.49765 4.21213,-2.49765 0.10583,0 2.24365,0.55033 4.76247,1.22766 3.8523,1.01599 4.65663,1.29116 5.12229,1.73565 0.9525,0.889 0.84666,0.9525 9.05927,-5.39746 0.127,-0.10583 0.42333,-0.0423 0.78316,0.127 0.29633,0.16934 0.762,0.381 1.03716,0.48683 l 0.46566,0.16934 -0.127,-1.24883 c -0.0635,-0.71966 -0.69849,-3.04798 -1.54515,-5.65146 -0.78316,-2.43415 -1.48166,-4.6143 -1.56632,-4.84713 -0.127,-0.40216 -0.10584,-0.40216 1.88381,-0.40216 h 2.01082 l 5.60913,2.26482 5.60912,2.26481 5.67263,0.33867 c 3.11148,0.1905 5.69379,0.29633 5.73612,0.254 0.0423,-0.0423 -1.54515,-3.11148 -3.51364,-6.79445 -3.32314,-6.24413 -3.5983,-6.81562 -3.7888,-8.14911 -0.127,-0.78316 -0.29633,-1.41816 -0.35983,-1.41816 -0.27517,0 -6.85795,-4.2333 -7.09078,-4.5508 -0.127,-0.1905 -0.59267,-0.52916 -1.03716,-0.76199 -0.42333,-0.23283 -6.03246,-1.96849 -12.44591,-3.89464 l -11.64158,-3.49247 -11.83208,-0.1905 c -6.49812,-0.127 -11.87442,-0.254 -11.93791,-0.29633 -0.0847,-0.0423 -3.45015,0.50799 -7.47178,1.20649 -6.30762,1.10066 -8.33961,1.54515 -14.32973,3.13264 l -6.96378,1.82032 -10.15993,5.2493 -10.15992,5.27046 -8.932269,10.43508 c -4.91063,5.7573 -9.080432,10.64676 -9.270931,10.87959 -0.232831,0.27517 -1.079491,4.08514 -2.793975,12.42474 l -2.49765,12.02258 4.550798,12.06491 c 3.577139,9.56726 4.614298,12.14958 4.995295,12.42474 0.253999,0.21167 4.931797,4.25447 10.413923,9.0381 8.995769,7.81044 11.959079,10.22343 12.551739,10.22343 0.10583,0 1.43933,0.50799 2.96331,1.10066 3.00565,1.18532 3.11148,1.22765 2.92098,0.88899 z"
         style="fill:#fd8a3b;fill-opacity:1;fill-rule:nonzero;stroke:none;stroke-width:0.264583"
         inkscape:connector-curvature="0" />
      <path
         sodipodi:nodetypes="scccsccccccccsccccccccccccccccccccccccscccccccccccsssccccccccccccccccccscccsscccccccsccccccccccccccccccsccccccccccscccccccccccscccsccccccccsccccsccsccccssccccsccsccccccccccccsccccscccscccccccccsccccsccscccccccccccccccccccsccccccsssss"
         id="path836"
         d="m 217.58131,295.11151 c -1.96849,-0.40216 -1.56633,-0.19049 -9.1651,-4.48729 -2.01082,-1.12183 -6.62512,-3.89464 -10.24459,-6.11713 -5.86313,-3.61947 -6.90029,-4.19097 -9.24977,-5.12229 -1.46049,-0.5715 -2.83631,-1.03716 -3.06914,-1.03716 -0.21167,0 -0.6985,-0.14817 -1.05833,-0.3175 -0.50799,-0.23283 -0.71966,-0.254 -1.05832,-0.0847 -0.23284,0.10584 -4.59314,0.84667 -9.69427,1.60866 l -9.27093,1.41816 -14.58372,-0.86783 -14.58373,-0.84666 -13.44073,-4.72013 c -7.38711,-2.58232 -13.63124,-4.82597 -13.86407,-4.97413 -0.48683,-0.29634 -11.197081,-8.9746 -11.641578,-9.4191 -0.148166,-0.14817 -0.169332,-0.21167 -0.04233,-0.14817 0.656162,0.381 -0.148166,-0.31749 -3.894638,-3.36547 -3.831138,-3.09031 -4.254469,-3.49248 -5.693791,-5.41863 l -1.545158,-2.07428 -4.6143,-12.89041 -4.59313,-12.8904 1.58749,-13.27141 c 1.10065,-9.27093 1.65098,-13.3984 1.84148,-13.67356 0.14817,-0.21167 4.720134,-5.65146 10.138761,-12.06491 l 9.842427,-11.66275 10.054097,-5.01646 10.03292,-5.01646 14.62606,-3.30198 14.60489,-3.30198 12.82691,0.46567 12.8269,0.46566 13.16557,3.34431 13.18674,3.34431 9.84243,6.30762 c 5.41862,3.47131 10.03292,6.49812 10.24459,6.73095 1.35465,1.46049 16.34054,19.47319 16.46754,19.76952 0.0847,0.1905 0.42333,1.58749 0.74083,3.06914 0.33866,1.48166 0.69849,2.66698 0.78316,2.60348 0.0847,-0.0423 0.0847,0.14817 0.0212,0.42333 -0.0847,0.381 -0.0635,0.46567 0.10583,0.35983 0.16933,-0.10583 0.1905,0 0.10583,0.4445 -0.10583,0.46566 -0.0847,0.5715 0.0847,0.46566 0.19049,-0.10583 0.21166,-0.0212 0.10583,0.35984 -0.0635,0.27516 -0.0423,0.46566 0.0212,0.40216 0.0847,-0.0423 0.80432,2.73048 1.58748,6.15945 l 1.43933,6.24412 -1.86266,10.73142 c -1.71448,9.84243 -1.90498,10.79492 -2.37064,11.36642 -4.19097,5.52446 -14.18157,18.05503 -14.58373,18.28786 -0.99482,0.59267 -14.26623,11.42992 -14.24506,11.62042 0,0.127 2.09548,5.94779 4.65663,12.9539 2.53998,7.00612 4.6143,12.86924 4.6143,13.0174 0,0.33867 -0.0635,0.33867 -1.18532,0.127 z m -3.64064,-5.67262 c 0.16933,-0.10583 -0.97366,-2.85748 -4.29681,-10.26576 -2.47648,-5.56679 -4.6778,-10.47742 -4.86829,-10.90075 l -0.33867,-0.78316 0.6985,-0.84666 c 0.42333,-0.52916 1.20649,-1.12183 1.96848,-1.54516 8.48777,-4.6143 8.53011,-4.63546 11.85325,-7.36594 2.85748,-2.32832 3.40781,-2.87865 4.88946,-4.8048 0.91016,-1.20649 3.97931,-5.20696 6.83678,-8.88993 l 5.1858,-6.68862 2.15898,-10.30809 2.15899,-10.30809 -2.41298,-9.31327 c -1.33349,-5.10112 -2.53998,-9.54609 -2.68815,-9.84242 -0.1905,-0.42333 -11.23942,-12.59408 -13.03857,-14.37206 -0.3175,-0.3175 8.42427,10.32925 11.47225,13.96989 0.95249,1.14299 1.10066,1.41816 1.48165,2.94215 0.21167,0.93132 0.46567,1.77798 0.55033,1.88382 0.10583,0.0847 0.16933,0.381 0.16933,0.65616 0,0.27516 0.74083,3.66181 1.67216,7.51411 l 1.67215,7.02728 -1.67215,8.17027 c -0.93133,4.48731 -1.67216,8.42428 -1.67216,8.72061 0,0.29633 -0.0635,0.61382 -0.12699,0.67732 -0.0847,0.0847 -0.23284,0.46567 -0.33867,0.86783 -0.127,0.55033 -2.09548,3.21731 -7.51411,10.20226 l -7.32361,9.44026 -8.29727,5.69379 c -4.57197,3.11148 -8.40311,5.73613 -8.50894,5.79963 -0.16933,0.10583 1.35465,3.89463 2.24365,5.58796 0.14816,0.31749 0.381,0.82549 0.48683,1.14299 0.67733,1.82032 7.02728,16.08654 7.17544,16.08654 0.10584,0 0.29634,-0.0635 0.42334,-0.14816 z m -38.16322,-13.48307 c 4.95296,-1.12182 9.14393,-2.07432 9.2921,-2.13781 0.23283,-0.0847 0.23283,-0.127 -0.0423,-0.27517 -0.23283,-0.127 -2.85748,0.3175 -9.60959,1.67216 l -9.2921,1.86265 -14.4144,-0.74083 -14.43555,-0.76199 -10.47743,-4.08514 -10.45625,-4.06397 -1.20649,-1.73566 c -0.65617,-0.95249 -1.143,-1.82032 -1.05833,-1.90498 0.0847,-0.0635 3.15381,-1.26999 6.79445,-2.64581 l 6.62512,-2.49765 4.8048,-0.46567 4.78363,-0.46566 7.09078,1.29116 c 3.89464,0.69849 7.09078,1.26999 7.11195,1.24882 0.0423,-0.0847 -8.31844,-13.5889 -8.40311,-13.5889 -0.0423,0 -0.99483,1.92615 -2.09548,4.25447 -1.37583,2.87865 -2.07432,4.1698 -2.18016,4.00047 -0.0847,-0.127 -0.31749,-0.55033 -0.52916,-0.93132 -0.1905,-0.381 -0.42333,-0.65617 -0.50799,-0.61383 -0.0847,0.0635 -0.86783,-1.12183 -1.71449,-2.60348 -0.86783,-1.50283 -2.87865,-4.97413 -4.46614,-7.72578 l -2.89981,-5.01646 -2.47648,-0.8255 -2.49765,-0.82549 -2.70931,2.03198 c -1.48166,1.10066 -2.75165,2.11666 -2.81515,2.24365 -0.0635,0.127 -1.10065,4.3603 -2.28598,9.44027 l -2.20132,9.24976 -0.44449,-0.67733 c -0.23283,-0.35983 -0.55033,-0.76199 -0.67733,-0.86782 -0.14817,-0.127 -1.77799,-2.51882 -3.64064,-5.33396 l -3.36548,-5.1223 -3.3443,-1.92615 c -2.899816,-1.71449 -3.30198,-1.98965 -3.153815,-2.28598 0.148166,-0.27517 0.08467,-0.40217 -0.380997,-0.65617 -0.317497,-0.16933 -0.698495,-0.40216 -0.84666,-0.50799 -0.211665,-0.14817 0.338664,-1.10066 2.857482,-5.01646 1.71448,-2.64582 3.09031,-4.82597 3.04797,-4.82597 -0.0423,0 -2.28598,1.35466 -4.974126,3.04798 -2.66698,1.67215 -4.995296,3.06914 -5.122295,3.13264 -0.190499,0.0847 -0.296331,-0.14817 -0.380997,-0.93132 -0.08467,-0.55033 -0.169332,-1.016 -0.211665,-1.016 -0.04233,0 -0.253999,0.10583 -0.444497,0.21167 -0.190499,0.127 -0.402164,0.1905 -0.444497,0.14816 -0.04233,-0.0423 -0.634995,-3.13264 -1.312323,-6.87911 -1.164159,-6.30762 -1.227658,-6.85795 -1.058326,-7.91628 1.75682,-10.20226 3.069144,-17.20837 3.301976,-17.67403 0.253998,-0.48683 3.746472,-6.73095 7.97978,-14.2874 l 0.86782,-1.52398 7.02728,-3.57714 c 6.77329,-3.45015 7.02728,-3.55598 7.02728,-3.09032 0,0.29633 -0.35983,0.91016 -0.93132,1.65099 l -0.93133,1.16416 1.56632,-0.82549 1.58749,-0.84667 v 0.48684 c 0,0.33866 -0.82549,1.50282 -3.00564,4.1698 -1.62983,2.01081 -3.17498,3.93697 -3.38665,4.27563 -0.46566,0.65616 -4.1063,10.79492 -4.1063,11.40875 0,0.23283 0.29633,2.34948 0.65616,4.7413 0.46567,2.96331 0.762,4.40263 0.9525,4.5508 0.14816,0.127 0.76199,0.67733 1.35465,1.24882 l 1.05833,1.016 1.52399,-0.762 c 0.84666,-0.42333 1.54515,-0.76199 1.56632,-0.78316 0.0212,-0.0212 0.127,-1.67215 0.254,-3.70414 l 0.21166,-3.68297 4.44497,-5.01646 c 2.45531,-2.75165 4.50847,-4.9953 4.59313,-4.97413 0.1905,0.0635 7.13312,7.45061 7.13312,7.61994 0,0.0635 0.29633,0.42333 0.63499,0.78316 0.5715,0.59266 0.71966,0.95249 1.20649,3.04798 0.91016,3.7888 0.84666,3.64064 1.69332,4.19097 0.42333,0.27516 0.84666,0.44449 0.91016,0.40216 0.0635,-0.0423 0.52917,-0.80433 1.03716,-1.67215 l 0.91016,-1.62983 0.14817,-3.80997 0.127,-3.80997 -2.98448,-4.9953 -3.00565,-4.99529 -4.69896,-3.15381 c -2.60348,-1.75682 -5.29163,-3.55598 -5.96896,-4.00047 -0.95249,-0.61383 -1.29115,-0.9525 -1.37582,-1.35466 -0.0635,-0.33866 -0.27516,-0.59266 -0.57149,-0.71966 -0.27517,-0.127 -0.508,-0.23283 -0.52917,-0.23283 -0.14816,-0.0847 -0.35983,-1.75682 -0.23283,-1.75682 0.1905,0 15.47272,3.45014 16.48871,3.7253 1.12183,0.29634 13.31374,8.69944 13.4619,9.2921 0.0635,0.23283 0.33867,0.635 0.635,0.84666 0.44449,0.35983 0.76199,1.16416 2.18015,5.54563 0.93132,2.81514 1.67215,5.12229 1.67215,5.16463 0,0.0212 8.36077,-1.10066 8.5936,-1.16416 0.0212,0 0.127,-0.254 0.254,-0.55033 0.16933,-0.42333 1.10066,-1.10066 4.23331,-3.04798 2.22248,-1.37582 4.1063,-2.49765 4.21213,-2.49765 0.10583,0 2.24365,0.55033 4.76247,1.22766 3.8523,1.01599 4.65663,1.29116 5.12229,1.73565 0.9525,0.889 0.84666,0.9525 9.05927,-5.39746 0.127,-0.10583 0.42333,-0.0423 0.78316,0.127 0.29633,0.16934 0.762,0.381 1.03716,0.48683 l 0.46566,0.16934 -0.127,-1.24883 c -0.0635,-0.71966 -0.69849,-3.04798 -1.54515,-5.65146 -0.78316,-2.43415 -1.48166,-4.6143 -1.56632,-4.84713 -0.127,-0.40216 -0.10584,-0.40216 1.88381,-0.40216 h 2.01082 l 5.60913,2.26482 5.60912,2.26481 5.67263,0.33867 c 3.11148,0.1905 5.69379,0.29633 5.73612,0.254 0.0423,-0.0423 -1.54515,-3.11148 -3.51364,-6.79445 -3.32314,-6.24413 -3.5983,-6.81562 -3.7888,-8.14911 -0.127,-0.78316 -0.29633,-1.41816 -0.35983,-1.41816 -0.27517,0 -6.85795,-4.2333 -7.09078,-4.5508 -0.127,-0.1905 -0.59267,-0.52916 -1.03716,-0.76199 -0.42333,-0.23283 -6.03246,-1.96849 -12.44591,-3.89464 l -11.64158,-3.49247 -11.83208,-0.1905 c -6.49812,-0.127 -11.87442,-0.254 -11.93791,-0.29633 -0.0847,-0.0423 -3.45015,0.50799 -7.47178,1.20649 -6.30762,1.10066 -8.33961,1.54515 -14.32973,3.13264 l -6.96378,1.82032 -10.15993,5.27046 -10.18109,5.2493 -3.492472,4.1063 c -1.926153,2.24365 -5.990122,6.98495 -8.995767,10.54092 -3.026811,3.55598 -5.609125,6.58279 -5.75729,6.73095 -0.148166,0.16933 -1.375823,5.71496 -2.730476,12.34008 l -2.49765,12.04374 4.550798,12.06491 c 3.534806,9.46143 4.635465,12.14958 4.974129,12.42474 1.714487,1.31233 12.932738,11.23942 12.911568,11.40875 -0.0212,0.10583 0.0423,0.21167 0.14817,0.21167 0.23283,0 1.69332,1.50282 4.8048,4.91063 1.24882,1.37582 2.49764,2.60348 2.75164,2.70931 0.3175,0.14817 23.89699,9.14393 29.18862,11.13358 0.35983,0.127 25.67498,1.69332 28.82879,1.77799 0.57149,0 4.27563,-0.74083 9.94826,-2.01082 z m -75.62794,-18.69003 c 0,-0.0635 0.0423,-0.10583 0.0847,-0.10583 0.0635,0 0.10583,0.0423 0.10583,0.10583 0,0.0423 -0.0423,0.0847 -0.10583,0.0847 -0.0423,0 -0.0847,-0.0423 -0.0847,-0.0847 z"
         style="fill:#fdbb00;fill-opacity:1;fill-rule:nonzero;stroke:none;stroke-width:0.264583"
         inkscape:connector-curvature="0" />
      <path
         sodipodi:nodetypes="scccsccccccccsccccccccccccccccccccccccscccccccccccsssccccccccccccccccsccccccccccccccccccccscccccccccssccccscccccccsccccccccccccscccscccccccccsccccsccccccsccccccccccsccccccsccccccccccccccccccccscccccscccccccscccccsccccccccscccccscccccccccccccccccccsccccccccccsccccsscccccccscccsccccccccccccccccccsscccccccccsssssscssscss"
         id="path838"
         d="m 217.58131,295.11151 c -1.96849,-0.40216 -1.56633,-0.19049 -9.1651,-4.48729 -2.01082,-1.12183 -6.62512,-3.89464 -10.24459,-6.11713 -5.86313,-3.61947 -6.90029,-4.19097 -9.24977,-5.12229 -1.46049,-0.5715 -2.83631,-1.03716 -3.06914,-1.03716 -0.21167,0 -0.6985,-0.14817 -1.05833,-0.3175 -0.50799,-0.23283 -0.71966,-0.254 -1.05832,-0.0847 -0.23284,0.10584 -4.59314,0.84667 -9.69427,1.60866 l -9.27093,1.41816 -14.58372,-0.86783 -14.58373,-0.84666 -13.44073,-4.72013 c -7.38711,-2.58232 -13.63124,-4.82597 -13.86407,-4.97413 -0.48683,-0.29634 -11.197081,-8.9746 -11.641578,-9.4191 -0.148166,-0.14817 -0.169332,-0.21167 -0.04233,-0.14817 0.656162,0.381 -0.148166,-0.31749 -3.894638,-3.36547 -3.831138,-3.09031 -4.254469,-3.49248 -5.693791,-5.41863 l -1.545158,-2.07428 -4.6143,-12.89041 -4.59313,-12.8904 1.58749,-13.27141 c 1.10065,-9.27093 1.65098,-13.3984 1.84148,-13.67356 0.14817,-0.21167 4.720134,-5.65146 10.138761,-12.06491 l 9.842427,-11.66275 10.054097,-5.01646 10.03292,-5.01646 14.62606,-3.30198 14.60489,-3.30198 12.82691,0.46567 12.8269,0.46566 13.16557,3.34431 13.18674,3.34431 9.84243,6.30762 c 5.41862,3.47131 10.03292,6.49812 10.24459,6.73095 1.35465,1.46049 16.34054,19.47319 16.46754,19.76952 0.0847,0.1905 0.42333,1.58749 0.74083,3.06914 0.33866,1.48166 0.69849,2.66698 0.78316,2.60348 0.0847,-0.0423 0.0847,0.14817 0.0212,0.42333 -0.0847,0.381 -0.0635,0.46567 0.10583,0.35983 0.16933,-0.10583 0.1905,0 0.10583,0.4445 -0.10583,0.46566 -0.0847,0.5715 0.0847,0.46566 0.19049,-0.10583 0.21166,-0.0212 0.10583,0.35984 -0.0635,0.27516 -0.0423,0.46566 0.0212,0.40216 0.0847,-0.0423 0.80432,2.73048 1.58748,6.15945 l 1.43933,6.24412 -1.86266,10.73142 c -1.71448,9.84243 -1.90498,10.79492 -2.37064,11.36642 -4.19097,5.52446 -14.18157,18.05503 -14.58373,18.28786 -0.99482,0.59267 -14.26623,11.42992 -14.24506,11.62042 0,0.127 2.09548,5.94779 4.65663,12.9539 2.53998,7.00612 4.6143,12.86924 4.6143,13.0174 0,0.33867 -0.0635,0.33867 -1.18532,0.127 z m -4.04281,-5.14346 c -0.0847,-0.254 -0.0212,-0.381 0.27517,-0.48683 0.21166,-0.0635 0.33866,-0.21166 0.29633,-0.31749 -0.0423,-0.127 -1.88382,-4.23331 -4.08514,-9.1651 -2.20132,-4.91063 -4.3603,-9.7366 -4.8048,-10.71026 l -0.78316,-1.79915 0.6985,-0.84666 c 0.42333,-0.52916 1.20649,-1.12183 1.96848,-1.54516 8.48777,-4.6143 8.53011,-4.63546 11.85325,-7.36594 2.85748,-2.32832 3.40781,-2.87865 4.88946,-4.8048 0.91016,-1.20649 3.97931,-5.20696 6.83678,-8.88993 l 5.1858,-6.68862 2.15898,-10.30809 2.15899,-10.30809 -2.41298,-9.31327 c -1.33349,-5.10112 -2.53998,-9.54609 -2.68815,-9.84242 -0.127,-0.29633 -3.47131,-4.04281 -7.40828,-8.29728 -3.93697,-4.25446 -7.45061,-8.0856 -7.78927,-8.50893 -0.46567,-0.52916 -3.72531,-2.68815 -11.42992,-7.51411 l -10.75259,-6.77329 -11.85324,-3.55597 -11.83208,-3.55597 -11.83208,-0.1905 c -6.49812,-0.127 -11.87442,-0.254 -11.93791,-0.29633 -0.0847,-0.0423 -3.45015,0.50799 -7.47178,1.20649 -6.30762,1.10066 -8.33961,1.54515 -14.32973,3.13264 l -6.96378,1.82032 -10.15993,5.27046 -10.18109,5.2493 -3.492472,4.1063 c -1.926153,2.24365 -5.990122,6.98495 -8.995767,10.54092 -3.026811,3.55598 -5.609125,6.58279 -5.75729,6.73095 -0.148166,0.16933 -1.375823,5.71496 -2.730476,12.34008 l -2.49765,12.04374 4.550798,12.06491 c 3.534806,9.46143 4.635465,12.14958 4.974129,12.42474 1.714487,1.31233 12.932738,11.23942 12.911568,11.40875 -0.0212,0.10583 0.0423,0.21167 0.14817,0.21167 0.23283,0 1.69332,1.50282 4.8048,4.91063 1.24882,1.37582 2.49764,2.60348 2.75164,2.70931 0.23284,0.10583 6.81562,2.62465 14.58373,5.56679 7.76811,2.96331 14.26623,5.43979 14.45672,5.54563 0.16934,0.0847 6.94262,0.52916 15.04939,0.99482 l 14.75306,0.84666 9.39793,-2.13781 9.39793,-2.11665 13.3984,7.93744 c 7.36595,4.38146 13.48307,8.0856 13.61007,8.23377 0.127,0.14816 0.23283,0.21166 0.23283,0.14816 0,-0.0847 0.14817,-0.0635 0.3175,0.0423 0.48683,0.29633 0.63499,0.254 0.52916,-0.14817 z m -100.58325,-31.5381 c -0.29634,-0.48683 -0.5715,-0.84666 -0.61383,-0.80432 -0.0635,0.0635 -1.65099,-2.24366 -3.53481,-5.1223 l -3.45014,-5.22813 -3.19615,-1.84148 c -2.645809,-1.54516 -3.196139,-1.92616 -3.153806,-2.24366 0.02117,-0.29633 -0.190498,-0.52916 -0.78316,-0.91015 l -0.825494,-0.508 3.15381,-4.84713 c 1.71449,-2.66698 3.09031,-4.8683 3.06914,-4.88946 -0.0423,-0.0423 -2.34948,1.37582 -5.122292,3.13264 -2.793979,1.73565 -5.122295,3.15381 -5.185795,3.11147 -0.0635,-0.0423 -0.190498,-0.50799 -0.253998,-1.01599 -0.08467,-0.59266 -0.211665,-0.91016 -0.338664,-0.84666 -0.126999,0.0423 -0.338664,0.127 -0.507996,0.1905 -0.232832,0.10583 -0.465664,-0.88899 -1.523989,-6.75211 l -1.248824,-6.85795 1.39699,-7.91628 c 0.761994,-4.3603 1.502822,-8.50894 1.629821,-9.2286 0.253998,-1.33349 0,-0.86783 7.979777,-15.07055 l 1.33349,-2.37065 7.00611,-3.55597 c 6.77329,-3.45015 7.02728,-3.55598 7.02728,-3.09032 0,0.27517 -0.29633,0.8255 -0.69849,1.3335 -0.381,0.46566 -0.8255,0.99482 -0.97366,1.18532 -0.16933,0.254 0.21166,0.127 1.24882,-0.40217 0.84666,-0.42332 1.56633,-0.76199 1.60866,-0.76199 0.48683,0 -0.40216,1.33349 -3.25964,4.82596 l -3.34431,4.10631 -1.96849,5.54562 -1.98965,5.52446 0.71966,4.50847 c 0.40216,2.47648 0.74083,4.52963 0.78316,4.59313 0.0212,0.0635 0.635,0.67733 1.35466,1.35466 l 1.33349,1.24882 1.52399,-0.78316 c 0.84666,-0.42333 1.54515,-0.76199 1.56632,-0.78316 0.0212,-0.0212 0.127,-1.67215 0.254,-3.70414 l 0.23283,-3.68297 4.4238,-4.97413 c 2.43415,-2.73048 4.46613,-5.01646 4.50847,-5.07996 0.0423,-0.0423 0.23283,0.10583 0.42333,0.33866 0.1905,0.23283 1.77798,1.92615 3.5348,3.74647 1.73566,1.84149 3.23848,3.51364 3.32315,3.72531 0.0847,0.21166 0.38099,0.63499 0.67732,0.95249 0.42333,0.4445 0.635,1.07949 1.22766,3.47131 l 0.6985,2.92098 0.78316,0.52916 c 0.42333,0.29633 0.82549,0.52916 0.91016,0.52916 0.0847,0 0.59266,-0.76199 1.10066,-1.69332 l 0.95249,-1.71449 0.127,-3.80997 0.127,-3.80997 -2.96331,-4.9953 c -2.28599,-3.83113 -3.13265,-5.10112 -3.68298,-5.48212 -0.381,-0.27516 -3.06914,-2.07432 -5.94779,-4.00047 -4.38146,-2.92098 -5.29162,-3.57714 -5.37629,-4.00047 -0.0635,-0.33867 -0.29633,-0.59266 -0.61383,-0.74083 -0.27516,-0.127 -0.52916,-0.23283 -0.55033,-0.23283 -0.127,-0.0847 -0.35983,-1.75682 -0.23283,-1.75682 0.0847,0 2.53998,0.55033 5.46096,1.20649 2.92098,0.67733 6.75212,1.54515 8.50894,1.94732 l 3.17497,0.71966 6.34996,4.3603 c 5.29162,3.64064 6.34995,4.44497 6.43462,4.88946 0.0635,0.29633 0.33866,0.635 0.65616,0.8255 0.27516,0.16933 0.57149,0.52916 0.63499,0.78316 0.0635,0.254 1.39699,4.40263 2.96331,9.18626 l 2.87865,8.74177 -0.23283,6.34996 -0.21167,6.34995 -2.37065,7.06961 -2.37064,7.09078 -3.28081,3.45015 -3.28081,3.45014 -1.10066,2.28598 c -0.61383,1.26999 -1.56633,3.25964 -2.11665,4.4238 l -1.03716,2.09548 -0.5715,-0.99482 c -0.3175,-0.55033 -0.63499,-0.97366 -0.71966,-0.91016 -0.0847,0.0423 -0.67733,-0.86783 -1.35466,-2.03199 -4.95296,-8.5936 -7.42944,-12.8269 -7.61994,-12.99623 -0.10583,-0.127 -1.29116,-0.55033 -2.60348,-0.97366 l -2.39181,-0.74083 -2.77282,2.07432 -2.75165,2.07432 -2.03198,8.4666 c -1.10066,4.65663 -2.09548,8.86877 -2.20132,9.39793 l -0.1905,0.95249 z m 76.00893,-1.07949 c 0.21167,-0.508 0.35983,-0.97366 0.29633,-1.01599 -0.0423,-0.0635 -0.48682,-0.0212 -0.97365,0.0847 -0.48683,0.127 -0.889,0.1905 -0.93133,0.14817 -0.0212,-0.0212 0.91016,-2.45531 2.05315,-5.41863 l 2.07432,-5.37629 0.381,-6.49812 c 0.21166,-3.57714 0.42333,-6.96378 0.46566,-7.53528 0.0635,-0.55033 0.14816,-1.88381 0.21166,-2.94214 0.0423,-1.05833 0.16934,-2.92098 0.23284,-4.14864 0.0847,-1.22765 0.0847,-2.87864 0.0212,-3.68297 -0.0847,-0.80433 -0.1905,-2.13782 -0.254,-2.94214 -0.0635,-0.80433 -0.16933,-1.79916 -0.21166,-2.20132 -0.0423,-0.42333 -0.508,-5.71496 -1.01599,-11.78975 l -0.93133,-11.04892 -1.52399,-4.74129 c -0.84666,-2.60349 -1.48165,-4.78363 -1.43932,-4.84713 0.0635,-0.0423 0.93133,-0.0847 1.94732,-0.0847 h 1.84148 l 5.6303,2.26482 5.63029,2.28598 2.11665,0.127 c 1.16416,0.0635 2.75165,0.16933 3.51364,0.21166 0.76199,0.0635 2.41298,0.14817 3.68297,0.23284 l 2.30715,0.14816 4.3603,2.64581 c 3.32314,2.01082 4.38147,2.75165 4.46614,3.09031 0.0635,0.254 0.33866,0.65617 0.63499,0.93133 0.381,0.35983 1.03716,1.77799 2.45532,5.3763 l 1.92615,4.88946 0.29633,6.66745 0.3175,6.64628 -1.73566,3.47131 c -0.95249,1.90499 -1.94731,3.95814 -2.22248,4.57197 l -0.508,1.10065 -4.93179,3.40781 c -3.06915,2.11665 -5.1223,3.42898 -5.46096,3.47131 -0.29633,0.0212 -2.09549,-0.16933 -4.02164,-0.40216 -1.92615,-0.254 -3.53481,-0.4445 -3.57714,-0.40217 -0.0212,0.0423 0.0423,2.37065 0.16933,5.1858 l 0.21167,5.12229 0.97366,3.04798 c 2.15898,6.62512 3.42897,10.73142 3.38664,10.77375 -0.0423,0.0212 -3.19614,-0.38099 -7.02728,-0.91016 l -6.96378,-0.97365 -3.72531,0.91015 c -2.03199,0.48684 -3.89464,0.93133 -4.12747,0.97366 l -0.40216,0.10584 z m 23.49483,-35.72907 3.30198,-2.03198 0.50799,-3.23848 c 0.29633,-1.77799 0.4445,-3.30197 0.35983,-3.38664 -0.0847,-0.0847 -1.10066,-0.99483 -2.24365,-2.01082 l -2.09548,-1.88382 -1.03716,0.0847 c -0.5715,0.0635 -1.96849,0.16933 -3.09031,0.23283 l -2.05315,0.127 -0.127,1.52399 c -0.0635,0.84666 -0.14817,1.90498 -0.21167,2.32831 -0.50799,4.9318 -0.61383,9.71543 -0.21166,9.7366 0.127,0 0.88899,0.127 1.71449,0.254 0.80432,0.127 1.56632,0.25399 1.67215,0.25399 0.127,0.0212 1.69332,-0.88899 3.51364,-1.98965 z m -38.77705,35.66557 -4.08514,-0.5715 -3.87347,-3.87347 c -2.11665,-2.13781 -3.87347,-3.95813 -3.87347,-4.0428 0,-0.10583 -0.27516,-0.48683 -0.63499,-0.84666 -0.55033,-0.55033 -1.01599,-1.69332 -3.49248,-8.48777 l -2.85747,-7.85277 0.57149,-9.5461 0.55033,-9.5461 2.62465,-5.20696 2.60348,-5.20696 4.02164,-2.49765 c 2.22248,-1.37582 4.12746,-2.47648 4.2333,-2.47648 0.12699,0 2.24365,0.55033 4.74129,1.24882 l 4.52964,1.22766 3.61947,3.76764 c 1.98966,2.07432 3.61948,3.85231 3.61948,3.95814 0,0.0847 0.27516,0.44449 0.59266,0.76199 0.48683,0.508 0.86782,1.54516 2.66698,7.11195 l 2.07432,6.49812 0.16933,6.18062 0.16933,6.15945 -1.43932,6.96378 -1.43932,6.98495 -2.01082,3.30198 -1.98965,3.32314 -3.49248,1.62982 c -1.90498,0.91016 -3.47131,1.65099 -3.47131,1.62982 -0.0212,-0.0212 -1.86265,-0.27516 -4.12747,-0.59266 z m 4.57197,-11.62041 c 2.26482,-1.14299 2.39181,-1.22766 2.56115,-1.90499 0.0847,-0.381 0.46566,-2.01082 0.84666,-3.64064 l 0.65616,-2.94214 -0.63499,-3.00565 c -0.33867,-1.65099 -0.65617,-3.02681 -0.6985,-3.04798 -0.0212,-0.0212 -0.91016,-0.80432 -1.94732,-1.73565 -1.03716,-0.93132 -1.92615,-1.69332 -1.96849,-1.69332 -0.0423,0 -1.14298,0.61383 -2.43414,1.37582 l -2.37065,1.37583 -1.31233,4.33913 -1.31232,4.3603 1.07949,3.25965 1.10066,3.25964 1.69332,0.57149 c 0.93133,0.3175 1.84149,0.59266 2.03199,0.59266 0.16933,0.0212 1.39699,-0.50799 2.70931,-1.16415 z m -78.10442,11.59924 c 0,-0.0635 0.0423,-0.10583 0.0847,-0.10583 0.0635,0 0.10583,0.0423 0.10583,0.10583 0,0.0423 -0.0423,0.0847 -0.10583,0.0847 -0.0423,0 -0.0847,-0.0423 -0.0847,-0.0847 z M 235.57284,234.3213 c 0,-0.254 0.0423,-0.35983 0.0847,-0.23283 0.0423,0.12699 0.0423,0.33866 0,0.46566 -0.0423,0.127 -0.0847,0.0212 -0.0847,-0.23283 z m 0,-31.8556 c 0,-0.254 0.0423,-0.35983 0.0847,-0.23283 0.0423,0.127 0.0423,0.33866 0,0.46566 -0.0423,0.127 -0.0847,0.0212 -0.0847,-0.23283 z"
         style="fill:#fc6502;fill-opacity:1;fill-rule:nonzero;stroke:none;stroke-width:0.264583"
         inkscape:connector-curvature="0" />
      <path
         sodipodi:nodetypes="cccsccccccccccsccccccccccccsscccccccsscccccccccccccscccccccsccccccccccccscccscccccccccsccccsccccccsccccccccccsccccccsccccccccccccccccccccscccccscccccccscccccsccccccccscccccscccccccccccccccccccsccccccccccsccccsscccccccscccsccccccccccccccccccsscccccccccccccccscccccccccccccccccccsccccccccccccccccccccsscsssssssssssssssssssssssssssssssss"
         id="path840"
         d="m 218.2163,295.00568 c -0.14816,-0.0423 -0.59266,-0.10583 -0.97366,-0.16933 -0.65616,-0.10583 -0.71966,-0.1905 -1.41815,-1.62982 -0.381,-0.82549 -1.71449,-4.31797 -2.92098,-7.76811 -1.20649,-3.45014 -3.04798,-8.42427 -4.06397,-11.04892 -1.84149,-4.7413 -1.86265,-4.8048 -1.67216,-5.71496 0.16934,-0.78316 0.42333,-1.14299 1.90499,-2.66698 1.39699,-1.46048 2.34948,-2.18015 5.65146,-4.38146 3.7253,-2.49765 4.14863,-2.81515 7.15428,-5.79963 1.75682,-1.75682 5.10113,-5.24929 7.45061,-7.76811 4.1698,-4.5508 5.46096,-6.24412 8.4031,-11.02775 0.35983,-0.5715 0.635,-2.03198 1.69332,-8.57243 1.05833,-6.64629 1.29116,-8.48778 1.43933,-11.74742 0.19049,-3.61947 0.19049,-3.9793 -0.16934,-5.86312 -0.21166,-1.07949 -0.35983,-2.01082 -0.31749,-2.05315 0.0212,-0.0212 0.48683,1.79915 0.99482,4.08513 l 0.9525,4.14864 -1.82032,10.54092 c -1.016,5.77846 -1.86266,10.62559 -1.90499,10.71025 -0.23283,0.59267 -14.60489,18.66887 -15.04939,18.92286 -0.69849,0.42334 -14.24506,11.36642 -14.32973,11.57809 -0.0212,0.10583 2.07432,6.03245 4.6778,13.18673 2.60348,7.13312 4.69897,13.0174 4.65663,13.03857 -0.0212,0.0212 -0.19049,0.0212 -0.33866,0 z m -19.68485,-12.27657 c -13.31374,-8.12794 -14.20273,-8.69944 -13.67357,-8.84761 0.508,-0.12699 1.69332,0.52917 13.9699,7.81045 7.36594,4.3603 13.50423,8.0856 13.63123,8.23377 0.127,0.14816 0.23283,0.21166 0.23283,0.14816 0,-0.0635 0.16933,-0.0423 0.381,0.0635 0.44449,0.23284 0.44449,0.33867 0.0423,0.86783 l -0.33866,0.42333 z m -49.29681,-2.85748 -13.44073,-0.80433 -13.44073,-4.69897 c -7.40828,-2.60348 -13.6524,-4.84713 -13.88523,-4.99529 -0.46567,-0.29633 -10.265763,-8.21261 -10.71026,-8.65711 -0.148165,-0.14816 0.253999,0.0212 0.91016,0.35984 10.73142,5.84195 18.6477,9.90592 24.38382,12.55174 l 4.21214,1.94732 5.73612,1.10066 5.73612,1.12182 5.79963,0.16933 c 7.47178,0.254 19.38852,0.254 25.61148,0 4.14863,-0.14817 8.8476,-0.59266 12.74224,-1.20649 0.61382,-0.0847 0.65616,-0.0635 0.74082,0.46566 0.0635,0.46567 0.0212,0.59266 -0.29633,0.67733 -1.71448,0.381 -18.66886,2.83631 -19.53669,2.81515 -0.61383,0 -7.15428,-0.381 -14.56256,-0.84666 z m -36.27939,-21.44168 c -0.29634,-0.48683 -0.5715,-0.84666 -0.61383,-0.80432 -0.0635,0.0635 -1.65099,-2.24366 -3.53481,-5.1223 l -3.45014,-5.22813 -3.19615,-1.84148 c -2.645809,-1.54516 -3.196139,-1.92616 -3.153806,-2.24366 0.02117,-0.29633 -0.190498,-0.52916 -0.78316,-0.91015 l -0.825494,-0.508 3.15381,-4.84713 c 1.71449,-2.66698 3.09031,-4.8683 3.06914,-4.88946 -0.0423,-0.0423 -2.34948,1.37582 -5.122292,3.13264 -2.793979,1.73565 -5.122295,3.15381 -5.185795,3.11147 -0.0635,-0.0423 -0.190498,-0.50799 -0.253998,-1.01599 -0.08467,-0.59266 -0.211665,-0.91016 -0.338664,-0.84666 -0.126999,0.0423 -0.338664,0.127 -0.507996,0.1905 -0.232832,0.10583 -0.465664,-0.88899 -1.523989,-6.75211 l -1.248824,-6.85795 1.39699,-7.91628 c 0.761994,-4.3603 1.502822,-8.50894 1.629821,-9.2286 0.253998,-1.33349 0,-0.86783 7.979777,-15.07055 l 1.33349,-2.37065 7.00611,-3.55597 c 6.77329,-3.45015 7.02728,-3.55598 7.02728,-3.09032 0,0.27517 -0.29633,0.8255 -0.69849,1.3335 -0.381,0.46566 -0.8255,0.99482 -0.97366,1.18532 -0.16933,0.254 0.21166,0.127 1.24882,-0.40217 0.84666,-0.42332 1.56633,-0.76199 1.60866,-0.76199 0.48683,0 -0.40216,1.33349 -3.25964,4.82596 l -3.34431,4.10631 -1.96849,5.54562 -1.98965,5.52446 0.71966,4.50847 c 0.40216,2.47648 0.74083,4.52963 0.78316,4.59313 0.0212,0.0635 0.635,0.67733 1.35466,1.35466 l 1.33349,1.24882 1.52399,-0.78316 c 0.84666,-0.42333 1.54515,-0.76199 1.56632,-0.78316 0.0212,-0.0212 0.127,-1.67215 0.254,-3.70414 l 0.23283,-3.68297 4.4238,-4.97413 c 2.43415,-2.73048 4.46613,-5.01646 4.50847,-5.07996 0.0423,-0.0423 0.23283,0.10583 0.42333,0.33866 0.1905,0.23283 1.77798,1.92615 3.5348,3.74647 1.73566,1.84149 3.23848,3.51364 3.32315,3.72531 0.0847,0.21166 0.38099,0.63499 0.67732,0.95249 0.42333,0.4445 0.635,1.07949 1.22766,3.47131 l 0.6985,2.92098 0.78316,0.52916 c 0.42333,0.29633 0.82549,0.52916 0.91016,0.52916 0.0847,0 0.59266,-0.76199 1.10066,-1.69332 l 0.95249,-1.71449 0.127,-3.80997 0.127,-3.80997 -2.96331,-4.9953 c -2.28599,-3.83113 -3.13265,-5.10112 -3.68298,-5.48212 -0.381,-0.27516 -3.06914,-2.07432 -5.94779,-4.00047 -4.38146,-2.92098 -5.29162,-3.57714 -5.37629,-4.00047 -0.0635,-0.33867 -0.29633,-0.59266 -0.61383,-0.74083 -0.27516,-0.127 -0.52916,-0.23283 -0.55033,-0.23283 -0.127,-0.0847 -0.35983,-1.75682 -0.23283,-1.75682 0.0847,0 2.53998,0.55033 5.46096,1.20649 2.92098,0.67733 6.75212,1.54515 8.50894,1.94732 l 3.17497,0.71966 6.34996,4.3603 c 5.29162,3.64064 6.34995,4.44497 6.43462,4.88946 0.0635,0.29633 0.33866,0.635 0.65616,0.8255 0.27516,0.16933 0.57149,0.52916 0.63499,0.78316 0.0635,0.254 1.39699,4.40263 2.96331,9.18626 l 2.87865,8.74177 -0.23283,6.34996 -0.21167,6.34995 -2.37065,7.06961 -2.37064,7.09078 -3.28081,3.45015 -3.28081,3.45014 -1.10066,2.28598 c -0.61383,1.26999 -1.56633,3.25964 -2.11665,4.4238 l -1.03716,2.09548 -0.5715,-0.99482 c -0.3175,-0.55033 -0.63499,-0.97366 -0.71966,-0.91016 -0.0847,0.0423 -0.67733,-0.86783 -1.35466,-2.03199 -4.95296,-8.5936 -7.42944,-12.8269 -7.61994,-12.99623 -0.10583,-0.127 -1.29116,-0.55033 -2.60348,-0.97366 l -2.39181,-0.74083 -2.77282,2.07432 -2.75165,2.07432 -2.03198,8.4666 c -1.10066,4.65663 -2.09548,8.86877 -2.20132,9.39793 l -0.1905,0.95249 z m 76.00893,-1.07949 c 0.21167,-0.508 0.35983,-0.97366 0.29633,-1.01599 -0.0423,-0.0635 -0.48682,-0.0212 -0.97365,0.0847 -0.48683,0.127 -0.889,0.1905 -0.93133,0.14817 -0.0212,-0.0212 0.91016,-2.45531 2.05315,-5.41863 l 2.07432,-5.37629 0.381,-6.49812 c 0.21166,-3.57714 0.42333,-6.96378 0.46566,-7.53528 0.0635,-0.55033 0.14816,-1.88381 0.21166,-2.94214 0.0423,-1.05833 0.16934,-2.92098 0.23284,-4.14864 0.0847,-1.22765 0.0847,-2.87864 0.0212,-3.68297 -0.0847,-0.80433 -0.1905,-2.13782 -0.254,-2.94214 -0.0635,-0.80433 -0.16933,-1.79916 -0.21166,-2.20132 -0.0423,-0.42333 -0.508,-5.71496 -1.01599,-11.78975 l -0.93133,-11.04892 -1.52399,-4.74129 c -0.84666,-2.60349 -1.48165,-4.78363 -1.43932,-4.84713 0.0635,-0.0423 0.93133,-0.0847 1.94732,-0.0847 h 1.84148 l 5.6303,2.26482 5.63029,2.28598 2.11665,0.127 c 1.16416,0.0635 2.75165,0.16933 3.51364,0.21166 0.76199,0.0635 2.41298,0.14817 3.68297,0.23284 l 2.30715,0.14816 4.3603,2.64581 c 3.32314,2.01082 4.38147,2.75165 4.46614,3.09031 0.0635,0.254 0.33866,0.65617 0.63499,0.93133 0.381,0.35983 1.03716,1.77799 2.45532,5.3763 l 1.92615,4.88946 0.29633,6.66745 0.3175,6.64628 -1.73566,3.47131 c -0.95249,1.90499 -1.94731,3.95814 -2.22248,4.57197 l -0.508,1.10065 -4.93179,3.40781 c -3.06915,2.11665 -5.1223,3.42898 -5.46096,3.47131 -0.29633,0.0212 -2.09549,-0.16933 -4.02164,-0.40216 -1.92615,-0.254 -3.53481,-0.4445 -3.57714,-0.40217 -0.0212,0.0423 0.0423,2.37065 0.16933,5.1858 l 0.21167,5.12229 0.97366,3.04798 c 2.15898,6.62512 3.42897,10.73142 3.38664,10.77375 -0.0423,0.0212 -3.19614,-0.38099 -7.02728,-0.91016 l -6.96378,-0.97365 -3.72531,0.91015 c -2.03199,0.48684 -3.89464,0.93133 -4.12747,0.97366 l -0.40216,0.10584 z m 23.49483,-35.72907 3.30198,-2.03198 0.50799,-3.23848 c 0.29633,-1.77799 0.4445,-3.30197 0.35983,-3.38664 -0.0847,-0.0847 -1.10066,-0.99483 -2.24365,-2.01082 l -2.09548,-1.88382 -1.03716,0.0847 c -0.5715,0.0635 -1.96849,0.16933 -3.09031,0.23283 l -2.05315,0.127 -0.127,1.52399 c -0.0635,0.84666 -0.14817,1.90498 -0.21167,2.32831 -0.50799,4.9318 -0.61383,9.71543 -0.21166,9.7366 0.127,0 0.88899,0.127 1.71449,0.254 0.80432,0.127 1.56632,0.25399 1.67215,0.25399 0.127,0.0212 1.69332,-0.88899 3.51364,-1.98965 z m -38.77705,35.66557 -4.08514,-0.5715 -3.87347,-3.87347 c -2.11665,-2.13781 -3.87347,-3.95813 -3.87347,-4.0428 0,-0.10583 -0.27516,-0.48683 -0.63499,-0.84666 -0.55033,-0.55033 -1.01599,-1.69332 -3.49248,-8.48777 l -2.85747,-7.85277 0.57149,-9.5461 0.55033,-9.5461 2.62465,-5.20696 2.60348,-5.20696 4.02164,-2.49765 c 2.22248,-1.37582 4.12746,-2.47648 4.2333,-2.47648 0.12699,0 2.24365,0.55033 4.74129,1.24882 l 4.52964,1.22766 3.61947,3.76764 c 1.98966,2.07432 3.61948,3.85231 3.61948,3.95814 0,0.0847 0.27516,0.44449 0.59266,0.76199 0.48683,0.508 0.86782,1.54516 2.66698,7.11195 l 2.07432,6.49812 0.16933,6.18062 0.16933,6.15945 -1.43932,6.96378 -1.43932,6.98495 -2.01082,3.30198 -1.98965,3.32314 -3.49248,1.62982 c -1.90498,0.91016 -3.47131,1.65099 -3.47131,1.62982 -0.0212,-0.0212 -1.86265,-0.27516 -4.12747,-0.59266 z m 4.57197,-11.62041 c 2.26482,-1.14299 2.39181,-1.22766 2.56115,-1.90499 0.0847,-0.381 0.46566,-2.01082 0.84666,-3.64064 l 0.65616,-2.94214 -0.63499,-3.00565 c -0.33867,-1.65099 -0.65617,-3.02681 -0.6985,-3.04798 -0.0212,-0.0212 -0.91016,-0.80432 -1.94732,-1.73565 -1.03716,-0.93132 -1.92615,-1.69332 -1.96849,-1.69332 -0.0423,0 -1.14298,0.61383 -2.43414,1.37582 l -2.37065,1.37583 -1.31233,4.33913 -1.31232,4.3603 1.07949,3.25965 1.10066,3.25964 1.69332,0.57149 c 0.93133,0.3175 1.84149,0.59266 2.03199,0.59266 0.16933,0.0212 1.39699,-0.50799 2.70931,-1.16415 z m -78.739419,11.23941 c -0.211665,-0.14816 -0.275165,-0.27516 -0.148166,-0.35983 0.105833,-0.0635 0.296331,0.0212 0.42333,0.16933 0.317495,0.381 0.126999,0.508 -0.275164,0.1905 z m -1.968486,-1.71448 c -0.232831,-0.29633 -0.211665,-0.29633 0.0635,-0.0847 0.317497,0.254 0.42333,0.40216 0.253998,0.40216 -0.02117,0 -0.169332,-0.14816 -0.317498,-0.31749 z m -6.138288,-4.91064 -5.503292,-4.48729 -4.571966,-12.10725 -4.571964,-12.12841 2.09548,-12.21307 c 1.16416,-6.73095 2.20132,-12.36124 2.28599,-12.53058 0.0847,-0.16933 4.423796,-5.07996 9.630757,-10.94308 l 9.440268,-10.66792 10.60442,-5.5033 10.60442,-5.52446 13.8429,-3.23847 13.84289,-3.25964 12.91158,0.48683 12.91157,0.46566 11.59925,3.49247 11.59924,3.47131 9.4826,6.47695 c 5.22813,3.55598 9.50376,6.51929 9.50376,6.56162 0,0.0423 -0.10583,0.0212 -0.23283,-0.0635 -4.8048,-2.96331 -17.20837,-10.87959 -17.22954,-11.00658 -0.21166,-0.67733 -2.24365,-1.39699 -13.61006,-4.82597 l -11.83209,-3.53481 -11.74741,-0.21166 c -6.45579,-0.10583 -11.89558,-0.23283 -12.06491,-0.29633 -0.16933,-0.0423 -3.66181,0.48683 -7.72577,1.20649 -6.39229,1.12182 -8.40311,1.54515 -14.39323,3.13264 l -6.96378,1.82032 -10.1811,5.27046 -10.18108,5.2493 -3.407815,4.02163 c -1.883819,2.20132 -6.011289,7.02729 -9.186265,10.73143 -3.15381,3.68297 -5.799623,6.87911 -5.884289,7.09078 -0.0635,0.1905 -1.227658,5.71495 -2.582316,12.27657 l -2.43415,11.89558 4.550802,12.12841 c 3.64064,9.71543 4.656632,12.21308 5.016463,12.48824 0.550329,0.42333 9.165099,7.89511 9.715428,8.42427 0.888993,0.84666 -0.169332,0.0212 -5.333961,-4.14864 z M 240.14481,208.15949 c 0,-0.127 0.0423,-0.1905 0.127,-0.10583 0.0635,0.0635 0.0635,0.16933 0,0.23283 -0.0847,0.0635 -0.127,0.0212 -0.127,-0.127 z m -0.1905,-0.91016 c 0,-0.127 0.0635,-0.1905 0.127,-0.127 0.0635,0.0635 0.0635,0.1905 0,0.254 -0.0635,0.0635 -0.127,0 -0.127,-0.127 z m -20.53152,-27.07196 c -0.0635,-0.10584 -0.0847,-0.1905 -0.0212,-0.1905 0.0423,0 0.14816,0.0847 0.21166,0.1905 0.0635,0.10583 0.0635,0.16933 0.0212,0.16933 -0.0635,0 -0.14817,-0.0635 -0.21167,-0.16933 z m -0.46566,-0.27517 c 0,-0.0635 0.0423,-0.10583 0.0847,-0.10583 0.0635,0 0.10583,0.0423 0.10583,0.10583 0,0.0423 -0.0423,0.0847 -0.10583,0.0847 -0.0423,0 -0.0847,-0.0423 -0.0847,-0.0847 z m -0.55033,-0.381 c 0,-0.0423 0.0423,-0.0847 0.0847,-0.0847 0.0635,0 0.10583,0.0423 0.10583,0.0847 0,0.0635 -0.0423,0.10584 -0.10583,0.10584 -0.0423,0 -0.0847,-0.0423 -0.0847,-0.10584 z m -0.46566,-0.27516 c -0.0635,-0.10583 -0.0635,-0.16933 -0.0212,-0.16933 0.0635,0 0.14817,0.0635 0.21167,0.16933 0.0635,0.10583 0.0635,0.1905 0.0212,0.1905 -0.0423,0 -0.14816,-0.0847 -0.21166,-0.1905 z m -0.55033,-0.35983 c -0.0635,-0.10583 -0.0635,-0.1905 -0.0212,-0.1905 0.0423,0 0.14817,0.0847 0.21167,0.1905 0.0635,0.10583 0.0635,0.1905 0.0212,0.1905 -0.0635,0 -0.14816,-0.0847 -0.21166,-0.1905 z"
         style="fill:#b28900;fill-opacity:1;fill-rule:nonzero;stroke:none;stroke-width:0.264583"
         inkscape:connector-curvature="0" />
      <path
         sodipodi:nodetypes="cccsccccccccccsccccccccccccsscccccccssccccccccccccsssssccccscscccccccccccccccccccccccsccccccccccccccccccccccccccccccccccccccsccccccsccccccccssccccccccccccccccccccccccscccccccccccccccccccccccccscccccccccccccccccccccccscccccccccccscccccccccccccccccccsccccccccccccccccccccsscsssssssssssssssssssssssssssssssss"
         id="path842"
         d="m 218.2163,295.00568 c -0.14816,-0.0423 -0.59266,-0.10583 -0.97366,-0.16933 -0.65616,-0.10583 -0.71966,-0.1905 -1.41815,-1.62982 -0.381,-0.82549 -1.71449,-4.31797 -2.92098,-7.76811 -1.20649,-3.45014 -3.04798,-8.42427 -4.06397,-11.04892 -1.84149,-4.7413 -1.86265,-4.8048 -1.67216,-5.71496 0.16934,-0.78316 0.42333,-1.14299 1.90499,-2.66698 1.39699,-1.46048 2.34948,-2.18015 5.65146,-4.38146 3.7253,-2.49765 4.14863,-2.81515 7.15428,-5.79963 1.75682,-1.75682 5.10113,-5.24929 7.45061,-7.76811 4.1698,-4.5508 5.46096,-6.24412 8.4031,-11.02775 0.35983,-0.5715 0.635,-2.03198 1.69332,-8.57243 1.05833,-6.64629 1.29116,-8.48778 1.43933,-11.74742 0.19049,-3.61947 0.19049,-3.9793 -0.16934,-5.86312 -0.21166,-1.07949 -0.35983,-2.01082 -0.31749,-2.05315 0.0212,-0.0212 0.48683,1.79915 0.99482,4.08513 l 0.9525,4.14864 -1.82032,10.54092 c -1.016,5.77846 -1.86266,10.62559 -1.90499,10.71025 -0.23283,0.59267 -14.60489,18.66887 -15.04939,18.92286 -0.69849,0.42334 -14.24506,11.36642 -14.32973,11.57809 -0.0212,0.10583 2.07432,6.03245 4.6778,13.18673 2.60348,7.13312 4.69897,13.0174 4.65663,13.03857 -0.0212,0.0212 -0.19049,0.0212 -0.33866,0 z m -19.68485,-12.27657 c -13.31374,-8.12794 -14.20273,-8.69944 -13.67357,-8.84761 0.508,-0.12699 1.69332,0.52917 13.9699,7.81045 7.36594,4.3603 13.50423,8.0856 13.63123,8.23377 0.127,0.14816 0.23283,0.21166 0.23283,0.14816 0,-0.0635 0.16933,-0.0423 0.381,0.0635 0.44449,0.23284 0.44449,0.33867 0.0423,0.86783 l -0.33866,0.42333 z m -49.29681,-2.85748 -13.44073,-0.80433 -13.44073,-4.69897 c -7.40828,-2.60348 -13.6524,-4.84713 -13.88523,-4.99529 -0.46567,-0.29633 -10.265763,-8.21261 -10.71026,-8.65711 -0.148165,-0.14816 0.253999,0.0212 0.91016,0.35984 10.73142,5.84195 18.6477,9.90592 24.38382,12.55174 l 4.21214,1.94732 5.73612,1.10066 5.73612,1.12182 5.79963,0.16933 c 7.47178,0.254 19.38852,0.254 25.61148,0 4.14863,-0.14817 8.8476,-0.59266 12.74224,-1.20649 0.61382,-0.0847 0.65616,-0.0635 0.74082,0.46566 0.0635,0.46567 0.0212,0.59266 -0.29633,0.67733 -1.71448,0.381 -18.66886,2.83631 -19.53669,2.81515 -0.61383,0 -7.15428,-0.381 -14.56256,-0.84666 z m -37.10489,-22.246 c 0,-0.0423 0.0423,-0.0847 0.0847,-0.0847 0.0635,0 0.0847,0.0423 0.0847,0.0847 0,0.0423 -0.0212,0.0847 -0.0847,0.0847 -0.0423,0 -0.0847,-0.0423 -0.0847,-0.0847 z m -3.89464,-6.03246 -3.7888,-5.75729 -3.45014,-2.01082 c -1.926156,-1.10066 -3.407812,-2.09548 -3.365479,-2.20132 0.04233,-0.127 1.904986,-3.02681 4.127469,-6.47695 2.22248,-3.45014 4.00047,-6.37112 3.95814,-6.49812 -0.0423,-0.127 -0.14817,-0.21166 -0.254,-0.21166 -0.0847,0 -1.37582,0.76199 -2.87864,1.71449 -3.513646,2.24365 -8.551275,5.37629 -9.651934,6.03245 -0.761994,0.46566 -0.867827,0.48683 -0.952493,0.21166 -0.0635,-0.16933 -0.634995,-3.23847 -1.291157,-6.81561 l -1.206491,-6.51928 1.375823,-7.76812 c 0.740828,-4.27563 1.481656,-8.42427 1.608655,-9.24976 0.253998,-1.39699 0.48683,-1.86265 4.762465,-9.4826 l 4.508462,-8.00094 6.90029,-3.55597 c 3.7888,-1.94732 6.96378,-3.53481 7.02728,-3.53481 0.50799,-0.0212 -0.1905,1.10066 -2.58231,4.04281 -1.48166,1.84148 -3.00565,3.74647 -3.38665,4.21213 -0.50799,0.67733 -1.07949,2.01082 -2.58231,6.30762 l -1.92615,5.43979 0.76199,4.8683 0.76199,4.8683 1.29116,1.22766 c 0.6985,0.65616 1.56632,1.48165 1.94732,1.79915 l 0.67733,0.59266 1.56632,-0.71966 1.54516,-0.74083 0.10583,-0.97366 c 0.0847,-0.80432 0.35983,-5.20696 0.35983,-6.20178 0,-0.23283 8.6571,-10.03293 8.95343,-10.13876 0.0847,-0.0212 1.73566,1.62982 3.66181,3.6618 l 3.51364,3.72531 0.67733,2.77281 c 0.35983,1.54516 0.74082,3.09031 0.84666,3.47131 0.14816,0.5715 0.40216,0.84666 1.54515,1.60866 l 1.37583,0.93132 1.05832,-1.82032 1.07949,-1.82032 0.0423,-3.8523 0.0635,-3.85231 -3.36547,-5.60912 c -2.77281,-4.63547 -3.49247,-5.6938 -4.06397,-6.07479 -0.40216,-0.254 -3.19615,-2.11665 -6.22295,-4.14864 -5.35513,-3.57714 -5.5033,-3.70414 -5.6303,-4.38146 -0.0635,-0.381 -0.10583,-0.71967 -0.0635,-0.762 0.0847,-0.0635 16.72155,3.70414 17.12371,3.89464 0.1905,0.0847 3.09031,2.05315 6.47695,4.38147 l 6.15946,4.2333 0.76199,2.30715 c 0.40216,1.26999 1.75682,5.39746 2.98448,9.18626 l 2.26482,6.90029 -0.127,4.06397 c -0.0635,2.24364 -0.16934,5.12229 -0.23283,6.37112 l -0.0847,2.30714 -2.32832,7.00612 -2.32832,7.00611 -3.28081,3.42898 -3.30197,3.42897 -2.07432,4.3603 c -1.16416,2.39182 -2.13782,4.38147 -2.18015,4.44497 -0.0423,0.0423 -2.28598,-3.70414 -4.95296,-8.29727 l -4.8683,-8.38194 -2.75165,-0.93132 -2.75164,-0.91017 -2.77282,2.09549 -2.79398,2.07432 -0.21166,0.99482 c -0.93133,4.19097 -4.19097,17.48354 -4.27564,17.48354 -0.0423,0 -1.79915,-2.60348 -3.89463,-5.75729 z m -8.720599,5.31279 c -0.211665,-0.14816 -0.275165,-0.27516 -0.148166,-0.35983 0.105833,-0.0635 0.296331,0.0212 0.42333,0.16933 0.317495,0.381 0.126999,0.508 -0.275164,0.1905 z m 87.946849,-0.46566 c 0,-0.0635 0.91016,-2.47648 2.03199,-5.35513 l 2.05315,-5.24929 0.71966,-11.68391 0.69849,-11.70509 -0.99482,-11.87441 c -0.55033,-6.54045 -1.03716,-12.25541 -1.10066,-12.72107 -0.0423,-0.44449 -0.127,-1.43932 -0.1905,-2.20132 -0.16933,-2.37065 -0.254,-2.75164 -1.75682,-7.40827 -0.80432,-2.49765 -1.46049,-4.57197 -1.46049,-4.63547 0,-0.0635 0.91016,-0.127 2.01082,-0.127 h 2.03199 l 5.48212,2.22248 5.46096,2.22249 5.84196,0.35983 5.86312,0.35983 4.27564,2.62465 4.2968,2.62464 1.98965,5.01647 1.96849,5.01646 0.29633,6.56162 0.29633,6.56162 -2.24365,4.63546 -2.24365,4.63547 -5.10113,3.51364 -5.07996,3.51364 -3.87347,-0.508 c -2.11666,-0.27516 -3.89464,-0.46566 -3.91581,-0.44449 -0.0423,0.0212 0.0212,2.34948 0.14816,5.16462 l 0.21167,5.1223 2.18015,6.77328 c 1.20649,3.72531 2.22248,6.85795 2.28598,6.96378 0.14817,0.254 0.84667,0.3175 -5.90545,-0.63499 -3.23848,-0.4445 -6.37112,-0.88899 -6.98495,-0.95249 -0.97366,-0.14817 -1.56632,-0.0423 -5.18579,0.78316 -2.26482,0.50799 -4.10631,0.88899 -4.10631,0.82549 z m 24.99765,-34.75541 c 1.75682,-1.07949 3.23848,-2.03198 3.28081,-2.11665 0.0635,-0.0635 0.33866,-1.62982 0.61383,-3.47131 l 0.52916,-3.3443 -0.84666,-0.78317 c -0.46566,-0.44449 -1.79915,-1.65099 -2.94214,-2.68814 l -2.09549,-1.88382 -1.03716,0.10583 c -0.57149,0.0423 -1.94732,0.14817 -3.02681,0.21167 -1.20649,0.0847 -2.03198,0.21166 -2.07432,0.33866 -0.23283,0.71966 -0.63499,7.49294 -0.65616,10.90075 v 4.04281 l 1.98965,0.29633 c 3.06915,0.46566 2.70932,0.57149 6.26529,-1.60866 z m -40.04704,33.95108 -4.08514,-0.57149 -3.8523,-3.87347 -3.8523,-3.87347 -2.85748,-7.91628 -2.85748,-7.93744 0.59266,-9.4826 0.57149,-9.48259 2.60349,-5.1858 2.60348,-5.18579 3.93697,-2.45532 c 2.15898,-1.33349 4.0428,-2.43415 4.19097,-2.43415 0.14816,0 2.30715,0.52917 4.76246,1.18533 l 4.50847,1.18532 3.51364,3.64064 c 1.92615,2.01082 3.57714,3.76764 3.66181,3.91581 0.0847,0.14816 1.05832,3.11147 2.18015,6.60395 l 2.01082,6.32878 0.14816,6.24412 0.14817,6.24412 -1.41816,6.85795 -1.39699,6.85795 -2.01082,3.34431 -2.01082,3.32314 -1.10065,0.52916 c -0.61383,0.27517 -2.18015,0.99483 -3.49248,1.62983 -1.29115,0.61383 -2.37065,1.10066 -2.39181,1.10066 0,-0.0212 -1.86266,-0.27517 -4.10631,-0.59267 z m 9.14394,-14.83772 0.82549,-3.57714 -0.42333,-2.05315 c -0.23283,-1.12183 -0.55033,-2.60348 -0.69849,-3.28081 l -0.27517,-1.24883 -2.58231,-2.30714 c -1.41816,-1.26999 -2.64582,-2.28599 -2.70932,-2.26482 -0.69849,0.29633 -4.8048,2.85748 -4.8048,3.00564 0,0.10584 -0.57149,2.03199 -1.26999,4.29681 l -1.26999,4.1063 1.31232,3.9793 1.33349,4.00047 2.28599,0.762 2.30715,0.76199 2.58231,-1.31232 2.56115,-1.31233 z m -84.009885,14.39323 c -0.232831,-0.29633 -0.211665,-0.29633 0.0635,-0.0847 0.317497,0.254 0.42333,0.40216 0.253998,0.40216 -0.02117,0 -0.169332,-0.14816 -0.317498,-0.31749 z m -6.138288,-4.91064 -5.503292,-4.48729 -4.571966,-12.10725 -4.571964,-12.12841 2.09548,-12.21307 c 1.16416,-6.73095 2.20132,-12.36124 2.28599,-12.53058 0.0847,-0.16933 4.423796,-5.07996 9.630757,-10.94308 l 9.440268,-10.66792 10.60442,-5.5033 10.60442,-5.52446 13.8429,-3.23847 13.84289,-3.25964 12.91158,0.48683 12.91157,0.46566 11.59925,3.49247 11.59924,3.47131 9.4826,6.47695 c 5.22813,3.55598 9.50376,6.51929 9.50376,6.56162 0,0.0423 -0.10583,0.0212 -0.23283,-0.0635 -4.8048,-2.96331 -17.20837,-10.87959 -17.22954,-11.00658 -0.21166,-0.67733 -2.24365,-1.39699 -13.61006,-4.82597 l -11.83209,-3.53481 -11.74741,-0.21166 c -6.45579,-0.10583 -11.89558,-0.23283 -12.06491,-0.29633 -0.16933,-0.0423 -3.66181,0.48683 -7.72577,1.20649 -6.39229,1.12182 -8.40311,1.54515 -14.39323,3.13264 l -6.96378,1.82032 -10.1811,5.27046 -10.18108,5.2493 -3.407815,4.02163 c -1.883819,2.20132 -6.011289,7.02729 -9.186265,10.73143 -3.15381,3.68297 -5.799623,6.87911 -5.884289,7.09078 -0.0635,0.1905 -1.227658,5.71495 -2.582316,12.27657 l -2.43415,11.89558 4.550802,12.12841 c 3.64064,9.71543 4.656632,12.21308 5.016463,12.48824 0.550329,0.42333 9.165099,7.89511 9.715428,8.42427 0.888993,0.84666 -0.169332,0.0212 -5.333961,-4.14864 z M 240.14481,208.15949 c 0,-0.127 0.0423,-0.1905 0.127,-0.10583 0.0635,0.0635 0.0635,0.16933 0,0.23283 -0.0847,0.0635 -0.127,0.0212 -0.127,-0.127 z m -0.1905,-0.91016 c 0,-0.127 0.0635,-0.1905 0.127,-0.127 0.0635,0.0635 0.0635,0.1905 0,0.254 -0.0635,0.0635 -0.127,0 -0.127,-0.127 z m -20.53152,-27.07196 c -0.0635,-0.10584 -0.0847,-0.1905 -0.0212,-0.1905 0.0423,0 0.14816,0.0847 0.21166,0.1905 0.0635,0.10583 0.0635,0.16933 0.0212,0.16933 -0.0635,0 -0.14817,-0.0635 -0.21167,-0.16933 z m -0.46566,-0.27517 c 0,-0.0635 0.0423,-0.10583 0.0847,-0.10583 0.0635,0 0.10583,0.0423 0.10583,0.10583 0,0.0423 -0.0423,0.0847 -0.10583,0.0847 -0.0423,0 -0.0847,-0.0423 -0.0847,-0.0847 z m -0.55033,-0.381 c 0,-0.0423 0.0423,-0.0847 0.0847,-0.0847 0.0635,0 0.10583,0.0423 0.10583,0.0847 0,0.0635 -0.0423,0.10584 -0.10583,0.10584 -0.0423,0 -0.0847,-0.0423 -0.0847,-0.10584 z m -0.46566,-0.27516 c -0.0635,-0.10583 -0.0635,-0.16933 -0.0212,-0.16933 0.0635,0 0.14817,0.0635 0.21167,0.16933 0.0635,0.10583 0.0635,0.1905 0.0212,0.1905 -0.0423,0 -0.14816,-0.0847 -0.21166,-0.1905 z m -0.55033,-0.35983 c -0.0635,-0.10583 -0.0635,-0.1905 -0.0212,-0.1905 0.0423,0 0.14817,0.0847 0.21167,0.1905 0.0635,0.10583 0.0635,0.1905 0.0212,0.1905 -0.0635,0 -0.14816,-0.0847 -0.21166,-0.1905 z"
         style="fill:#e64c00;fill-opacity:1;fill-rule:nonzero;stroke:none;stroke-width:0.264583"
         inkscape:connector-curvature="0" />
      <path
         id="path844"
         d="m 112.12975,257.62563 c 0,-0.0423 0.0423,-0.0847 0.0847,-0.0847 0.0635,0 0.0847,0.0423 0.0847,0.0847 0,0.0423 -0.0212,0.0847 -0.0847,0.0847 -0.0423,0 -0.0847,-0.0423 -0.0847,-0.0847 z m -3.89464,-6.03246 -3.7888,-5.75729 -3.45014,-2.01082 c -1.926156,-1.10066 -3.407812,-2.09548 -3.365479,-2.20132 0.04233,-0.127 1.904986,-3.02681 4.127469,-6.47695 2.22248,-3.45014 4.00047,-6.37112 3.95814,-6.49812 -0.0423,-0.127 -0.14817,-0.21166 -0.254,-0.21166 -0.0847,0 -1.37582,0.76199 -2.87864,1.71449 -3.513646,2.24365 -8.551275,5.37629 -9.651934,6.03245 -0.761994,0.46566 -0.867827,0.48683 -0.952493,0.21166 -0.0635,-0.16933 -0.634995,-3.23847 -1.291157,-6.81561 l -1.206491,-6.51928 1.375823,-7.76812 c 0.740828,-4.27563 1.481656,-8.42427 1.608655,-9.24976 0.253998,-1.39699 0.48683,-1.86265 4.762465,-9.4826 l 4.508462,-8.00094 6.90029,-3.55597 c 3.7888,-1.94732 6.96378,-3.53481 7.02728,-3.53481 0.50799,-0.0212 -0.1905,1.10066 -2.58231,4.04281 -1.48166,1.84148 -3.00565,3.74647 -3.38665,4.21213 -0.50799,0.67733 -1.07949,2.01082 -2.58231,6.30762 l -1.92615,5.43979 0.76199,4.8683 0.76199,4.8683 1.29116,1.22766 c 0.6985,0.65616 1.56632,1.48165 1.94732,1.79915 l 0.67733,0.59266 1.56632,-0.71966 1.54516,-0.74083 0.10583,-0.97366 c 0.0847,-0.80432 0.35983,-5.20696 0.35983,-6.20178 0,-0.23283 8.6571,-10.03293 8.95343,-10.13876 0.0847,-0.0212 1.73566,1.62982 3.66181,3.6618 l 3.51364,3.72531 0.67733,2.77281 c 0.35983,1.54516 0.74082,3.09031 0.84666,3.47131 0.14816,0.5715 0.40216,0.84666 1.54515,1.60866 l 1.37583,0.93132 1.05832,-1.82032 1.07949,-1.82032 0.0423,-3.8523 0.0635,-3.85231 -3.36547,-5.60912 c -2.77281,-4.63547 -3.49247,-5.6938 -4.06397,-6.07479 -0.40216,-0.254 -3.19615,-2.11665 -6.22295,-4.14864 -5.35513,-3.57714 -5.5033,-3.70414 -5.6303,-4.38146 -0.0635,-0.381 -0.10583,-0.71967 -0.0635,-0.762 0.0847,-0.0635 16.72155,3.70414 17.12371,3.89464 0.1905,0.0847 3.09031,2.05315 6.47695,4.38147 l 6.15946,4.2333 0.76199,2.30715 c 0.40216,1.26999 1.75682,5.39746 2.98448,9.18626 l 2.26482,6.90029 -0.127,4.06397 c -0.0635,2.24364 -0.16934,5.12229 -0.23283,6.37112 l -0.0847,2.30714 -2.32832,7.00612 -2.32832,7.00611 -3.28081,3.42898 -3.30197,3.42897 -2.07432,4.3603 c -1.16416,2.39182 -2.13782,4.38147 -2.18015,4.44497 -0.0423,0.0423 -2.28598,-3.70414 -4.95296,-8.29727 l -4.8683,-8.38194 -2.75165,-0.93132 -2.75164,-0.91017 -2.77282,2.09549 -2.79398,2.07432 -0.21166,0.99482 c -0.93133,4.19097 -4.19097,17.48354 -4.27564,17.48354 -0.0423,0 -1.79915,-2.60348 -3.89463,-5.75729 z m 79.22625,4.84713 c 0,-0.0635 0.91016,-2.47648 2.03199,-5.35513 l 2.05315,-5.24929 0.71966,-11.68391 0.69849,-11.70509 -0.99482,-11.87441 c -0.55033,-6.54045 -1.03716,-12.25541 -1.10066,-12.72107 -0.0423,-0.44449 -0.127,-1.43932 -0.1905,-2.20132 -0.16933,-2.37065 -0.254,-2.75164 -1.75682,-7.40827 -0.80432,-2.49765 -1.46049,-4.57197 -1.46049,-4.63547 0,-0.0635 0.91016,-0.127 2.01082,-0.127 h 2.03199 l 5.48212,2.22248 5.46096,2.22249 5.84196,0.35983 5.86312,0.35983 4.27564,2.62465 4.2968,2.62464 1.98965,5.01647 1.96849,5.01646 0.29633,6.56162 0.29633,6.56162 -2.24365,4.63546 -2.24365,4.63547 -5.10113,3.51364 -5.07996,3.51364 -3.87347,-0.508 c -2.11666,-0.27516 -3.89464,-0.46566 -3.91581,-0.44449 -0.0423,0.0212 0.0212,2.34948 0.14816,5.16462 l 0.21167,5.1223 2.18015,6.77328 c 1.20649,3.72531 2.22248,6.85795 2.28598,6.96378 0.14817,0.254 0.84667,0.3175 -5.90545,-0.63499 -3.23848,-0.4445 -6.37112,-0.88899 -6.98495,-0.95249 -0.97366,-0.14817 -1.56632,-0.0423 -5.18579,0.78316 -2.26482,0.50799 -4.10631,0.88899 -4.10631,0.82549 z m 24.99765,-34.75541 c 1.75682,-1.07949 3.23848,-2.03198 3.28081,-2.11665 0.0635,-0.0635 0.33866,-1.62982 0.61383,-3.47131 l 0.52916,-3.3443 -0.84666,-0.78317 c -0.46566,-0.44449 -1.79915,-1.65099 -2.94214,-2.68814 l -2.09549,-1.88382 -1.03716,0.10583 c -0.57149,0.0423 -1.94732,0.14817 -3.02681,0.21167 -1.20649,0.0847 -2.03198,0.21166 -2.07432,0.33866 -0.23283,0.71966 -0.63499,7.49294 -0.65616,10.90075 v 4.04281 l 1.98965,0.29633 c 3.06915,0.46566 2.70932,0.57149 6.26529,-1.60866 z m -40.04704,33.95108 -4.08514,-0.57149 -3.8523,-3.87347 -3.8523,-3.87347 -2.85748,-7.91628 -2.85748,-7.93744 0.59266,-9.4826 0.57149,-9.48259 2.60349,-5.1858 2.60348,-5.18579 3.93697,-2.45532 c 2.15898,-1.33349 4.0428,-2.43415 4.19097,-2.43415 0.14816,0 2.30715,0.52917 4.76246,1.18533 l 4.50847,1.18532 3.51364,3.64064 c 1.92615,2.01082 3.57714,3.76764 3.66181,3.91581 0.0847,0.14816 1.05832,3.11147 2.18015,6.60395 l 2.01082,6.32878 0.14816,6.24412 0.14817,6.24412 -1.41816,6.85795 -1.39699,6.85795 -2.01082,3.34431 -2.01082,3.32314 -1.10065,0.52916 c -0.61383,0.27517 -2.18015,0.99483 -3.49248,1.62983 -1.29115,0.61383 -2.37065,1.10066 -2.39181,1.10066 0,-0.0212 -1.86266,-0.27517 -4.10631,-0.59267 z m 9.14394,-14.83772 0.82549,-3.57714 -0.42333,-2.05315 c -0.23283,-1.12183 -0.55033,-2.60348 -0.69849,-3.28081 l -0.27517,-1.24883 -2.58231,-2.30714 c -1.41816,-1.26999 -2.64582,-2.28599 -2.70932,-2.26482 -0.69849,0.29633 -4.8048,2.85748 -4.8048,3.00564 0,0.10584 -0.57149,2.03199 -1.26999,4.29681 l -1.26999,4.1063 1.31232,3.9793 1.33349,4.00047 2.28599,0.762 2.30715,0.76199 2.58231,-1.31232 2.56115,-1.31233 z"
         style="fill:#353535;fill-opacity:1;fill-rule:nonzero;stroke:none;stroke-width:0.264583"
         inkscape:connector-curvature="0" />
      <path
         sodipodi:nodetypes="ccccccccccccsccccscccccccscscscccsccscccccccccccssccsccssssssscsccccccccccccccccccccccccccccccccccscccccccscccccccccccsccsccccccccccccccccccccscccccccccsscccccccccsccccccccccccccccccccsccssc"
         id="path846"
         d="m 206.89222,256.22864 c -1.31232,-0.21167 -4.38147,-0.635 -6.81562,-0.99483 l -4.4238,-0.61383 -2.58231,0.61383 c -1.41816,0.3175 -2.60348,0.5715 -2.62465,0.55033 -0.16933,-0.14817 2.15898,-6.30762 3.47131,-9.20743 1.10066,-2.43415 1.52399,-3.57714 1.58749,-4.33914 0.0423,-0.55033 0.31749,-5.43979 0.61382,-10.85842 l 0.52917,-9.86359 -1.10066,-14.35089 c -0.59266,-7.91628 -1.16416,-14.7319 -1.26999,-15.17639 -0.10583,-0.46567 -0.67733,-1.71449 -1.26999,-2.81515 -0.61383,-1.10066 -1.03716,-2.01082 -0.97366,-2.01082 0.0635,0 0.78316,0.21167 1.58749,0.4445 0.82549,0.254 3.93697,0.88899 6.92145,1.41816 l 5.43979,0.97366 3.49247,-0.67733 c 1.92615,-0.381 3.74647,-0.67733 4.06397,-0.67733 0.381,0 1.86265,0.80433 4.84713,2.62465 l 4.29681,2.62464 1.98965,4.9953 1.96848,5.01646 0.29633,6.58279 0.29633,6.58278 -2.13781,4.44497 c -1.16416,2.43415 -2.26482,4.57196 -2.43415,4.7413 -0.16933,0.16933 -2.45532,1.82032 -5.07996,3.64064 -3.06915,2.11665 -4.95297,3.32314 -5.2493,3.32314 -0.254,0 -2.03198,-0.21167 -3.95814,-0.4445 -1.92615,-0.254 -3.5348,-0.42333 -3.57714,-0.38099 -0.0423,0.0423 0.0212,2.37064 0.127,5.14346 l 0.1905,5.05879 2.22249,6.92145 c 1.22765,3.80997 2.22248,6.96378 2.22248,7.00612 0,0.0423 -0.0635,0.0847 -0.127,0.0635 -0.0847,0 -1.22766,-0.16934 -2.53998,-0.35983 z m 3.32314,-30.86078 c 1.62982,-0.35983 3.25964,-0.84666 3.64064,-1.07949 0.74083,-0.44449 4.2333,-4.72013 4.44497,-5.46096 0.0635,-0.23283 0.35983,-1.62982 0.67733,-3.11148 l 0.55033,-2.66697 -0.61383,-1.31233 -0.59267,-1.31232 -3.8523,-1.96849 -3.83114,-1.98965 -0.76199,0.55033 c -0.71966,0.508 -0.93133,0.55033 -2.87865,0.67733 -1.16416,0.0635 -2.13782,0.14816 -2.15898,0.16933 -0.127,0.127 -0.80433,8.9746 -0.80433,10.60442 0,1.69332 -0.0423,2.05315 -0.27516,2.05315 -0.14817,0 -0.27517,0.127 -0.254,0.3175 0,0.1905 0.0423,0.23283 0.10583,0.0847 0.23283,-0.5715 0.42333,-0.127 0.42333,0.95249 0,1.10066 0.0635,1.24883 0.84666,2.34948 0.99483,1.37583 1.71449,2.03199 2.09549,1.90499 0.16933,-0.0423 1.60865,-0.381 3.23847,-0.762 z m -6.18062,-1.26999 c 0,-0.0423 -0.0423,-0.0847 -0.0847,-0.0847 -0.0635,0 -0.0847,0.0423 -0.0847,0.0847 0,0.0635 0.0212,0.10584 0.0847,0.10584 0.0423,0 0.0847,-0.0423 0.0847,-0.10584 z m -0.23283,-1.69332 c -0.0847,-0.0635 -0.127,0 -0.127,0.127 0,0.14817 0.0423,0.1905 0.127,0.127 0.0635,-0.0635 0.0635,-0.16933 0,-0.254 z m -29.95062,33.37959 -1.56632,-0.254 -4.38147,-4.38147 -4.38146,-4.38147 -2.45532,-8.10677 -2.45531,-8.10677 0.35983,-8.08561 0.35983,-8.10677 2.28598,-4.9953 2.28598,-4.99529 4.14864,-3.06915 c 2.64581,-1.96848 4.08514,-3.15381 4.00047,-3.30197 -0.0847,-0.127 -0.0212,-0.16934 0.16933,-0.10584 0.14817,0.0635 1.26999,0.381 2.45532,0.6985 4.44497,1.18532 3.66181,0.67733 7.61994,4.8048 l 3.53481,3.68297 2.09549,6.47695 2.07431,6.49812 0.14817,5.79962 c 0.0847,3.19615 0.127,6.09596 0.127,6.43462 -0.0212,0.35983 -0.65616,3.66181 -1.41816,7.34478 l -1.39699,6.68862 -1.96848,3.30197 -1.98966,3.30198 -3.3443,1.56632 c -3.64064,1.71449 -3.59831,1.71449 -6.30763,1.29116 z m 6.0113,-7.34478 c 0.48682,-0.254 1.01599,-0.59266 1.16415,-0.78316 0.762,-0.889 3.47131,-5.41863 3.66181,-6.11712 0.14817,-0.55033 0.14817,-1.73566 0.0212,-4.40264 -0.10584,-2.01081 -0.254,-3.8523 -0.29633,-4.1063 -0.0635,-0.254 -0.52917,-1.56632 -1.03716,-2.94214 -0.889,-2.39182 -0.9525,-2.51882 -1.86266,-3.21731 -0.91016,-0.6985 -1.05832,-0.74083 -2.98448,-0.9525 -2.85747,-0.31749 -3.17497,-0.31749 -3.30197,0.0847 -0.0635,0.1905 -1.03716,0.88899 -2.18015,1.56632 l -2.07432,1.22766 -1.31233,4.2968 -1.33349,4.2968 0.80433,2.47648 c 0.46566,1.48166 0.71966,2.51882 0.61383,2.58232 -0.10583,0.0635 -0.0423,0.59266 0.1905,1.37582 0.1905,0.6985 0.48683,1.75682 0.65616,2.32832 0.254,0.91016 0.42333,1.14299 1.35466,1.88382 l 1.05832,0.82549 h 3.00565 c 2.79398,0.0212 3.04798,-0.0212 3.85231,-0.42333 z m -70.39982,-0.42333 c -2.20132,-3.53481 -3.70414,-5.75729 -4.08514,-6.05362 -0.33866,-0.254 -1.16415,-0.635 -1.86265,-0.84666 -0.67733,-0.21167 -1.31232,-0.4445 -1.39699,-0.52916 -0.10583,-0.0847 1.18533,-2.32832 2.85748,-4.9953 1.67216,-2.66698 3.09031,-4.95297 3.15381,-5.07996 0.0847,-0.127 -0.33866,-0.52917 -1.16416,-1.05833 -0.69849,-0.4445 -1.29116,-0.91016 -1.29116,-1.01599 0,-0.127 -0.10583,-0.1905 -0.23283,-0.16933 -0.127,0.0423 -0.42333,-0.0423 -0.65616,-0.1905 -0.50799,-0.27517 -0.55033,-0.23284 -1.37582,1.01599 -0.508,0.762 -1.16416,1.24882 -5.185796,3.76764 -2.539982,1.60865 -4.656632,2.85748 -4.720132,2.77281 -0.0635,-0.0635 -0.359831,-2.96331 -0.677328,-6.45578 l -0.571496,-6.37112 1.33349,-8.76294 1.354657,-8.76294 3.852304,-7.04844 3.852311,-7.06962 2.56114,-1.35465 c 1.41816,-0.74083 3.70414,-1.94732 5.0588,-2.66698 2.77281,-1.46049 2.75165,-1.56632 0.29633,1.41815 l -1.46049,1.79916 -1.96849,5.54562 -1.98965,5.56679 0.508,3.28081 0.508,3.25965 -0.42334,0.21166 c -0.23283,0.10583 -0.42333,0.254 -0.42333,0.33866 0,0.0847 0.8255,1.79916 1.82032,3.80998 l 1.82032,3.64064 1.48166,0.59266 1.46049,0.57149 1.77799,-0.65616 c 1.73565,-0.65616 1.79915,-0.69849 2.60348,-1.82032 l 0.82549,-1.14299 v -3.6618 -3.66181 l 4.02164,-4.02164 c 3.64064,-3.64064 4.06397,-4.00047 4.38147,-3.7888 0.19049,0.127 1.33349,1.29115 2.56114,2.58231 l 2.20132,2.37065 0.84666,3.45014 c 0.46566,1.90499 1.05833,4.00047 1.33349,4.6778 l 0.508,1.20649 1.50282,0.29633 c 2.37065,0.508 2.39181,0.48683 3.89464,-0.95249 1.96848,-1.92615 2.03198,-2.18015 1.77798,-6.83678 -0.127,-2.05316 -0.29633,-3.91581 -0.38099,-4.14864 -0.23283,-0.61383 -7.53528,-13.37723 -7.87395,-13.75823 -0.16933,-0.1905 -1.90498,-1.31233 -3.89463,-2.51881 -6.22296,-3.78881 -6.75212,-4.10631 -6.28646,-4.00048 0.254,0.0423 3.28081,0.74083 6.73095,1.50283 l 6.26529,1.39699 2.30715,1.56632 c 1.24882,0.86782 4.1063,2.81514 6.32879,4.3603 l 4.0428,2.79398 1.41816,4.33913 c 0.80432,2.37065 2.15898,6.51929 3.02681,9.18627 l 1.58749,4.84713 -0.21167,6.34995 -0.21166,6.34996 -2.37065,7.09078 -2.37065,7.09078 -3.21731,3.30197 -3.23848,3.30198 -1.24882,2.60348 -1.24883,2.58231 -4.19097,-7.53527 c -5.05879,-9.05927 -4.57196,-8.50894 -8.42427,-9.03811 -1.35465,-0.19049 -2.58231,-0.29633 -2.68814,-0.23283 -0.10584,0.0635 -1.10066,0.9525 -2.22249,1.98965 -1.10066,1.03716 -2.70931,2.41299 -3.5983,3.09032 -0.889,0.65616 -1.60866,1.26999 -1.60866,1.33349 0,0.31749 -3.38664,14.35089 -3.49247,14.45672 -0.0635,0.0635 -1.67216,-2.41298 -3.59831,-5.50329 z"
         style="fill:#171717;fill-opacity:1;fill-rule:nonzero;stroke:none;stroke-width:0.264583"
         inkscape:connector-curvature="0" />
      <path
         id="path848"
         d="m 202.00276,255.48781 c -6.24413,-0.889 -6.37112,-0.889 -7.51412,-0.61383 -0.65616,0.14816 -1.20649,0.254 -1.26999,0.1905 -0.0423,-0.0423 0.635,-1.03716 1.52399,-2.20132 0.86783,-1.18532 1.73566,-2.49765 1.92616,-2.94214 0.44449,-0.97366 2.94214,-15.47272 2.94214,-16.99671 0,-0.59266 -0.4445,-7.17545 -1.01599,-14.62606 l -1.016,-13.54657 -1.35465,-7.64111 c -0.74083,-4.19097 -1.31232,-7.66227 -1.29116,-7.68344 0.0212,-0.0423 1.37582,0.35983 3.00564,0.86783 1.96849,0.61383 3.30198,0.93132 3.93698,0.93132 0.52916,0 3.61947,-0.50799 6.85795,-1.12182 l 5.90545,-1.14299 4.00047,2.47648 4.00047,2.45531 1.96849,4.88947 1.94732,4.86829 0.31749,6.73095 0.3175,6.73095 -2.24365,4.59314 -2.24365,4.6143 -5.03763,3.47131 -5.01646,3.49247 -3.89464,-0.508 c -2.13782,-0.254 -3.95814,-0.48683 -4.0428,-0.48683 -0.0847,0 -0.10584,0.23283 -0.0423,0.508 0.0423,0.29633 0.127,1.88382 0.1905,3.55597 0.21167,6.39229 0.14817,5.94779 2.15899,12.25541 0.99482,3.13264 1.98965,6.18062 2.18015,6.75212 l 0.33866,1.05832 h -0.59266 c -0.3175,-0.0212 -3.42897,-0.42333 -6.94261,-0.93132 z m 12.21307,-29.27329 c 4.46613,-1.84148 4.5508,-1.94732 6.79445,-7.11194 l 1.67216,-3.93697 -0.42334,-2.13782 -0.44449,-2.13782 -2.92098,-2.64581 c -2.39182,-2.18015 -3.02681,-2.64582 -3.49248,-2.66698 -0.31749,-0.0212 -1.37582,-0.0847 -2.32831,-0.14817 l -1.75682,-0.127 -1.65099,1.14299 c -1.62982,1.10066 -1.69332,1.12183 -3.21731,1.24883 -0.84666,0.0635 -1.56632,0.127 -1.58749,0.14816 -0.21166,0.21167 -0.82549,8.00094 -0.82549,10.37159 0,1.98966 -0.0423,2.30715 -0.29633,2.30715 -0.254,0 -0.27517,0.16933 -0.16933,1.50283 0.0635,0.84666 0.16933,1.67215 0.21166,1.84148 0.0423,0.16933 0.52916,0.61383 1.05833,0.99483 0.52916,0.381 1.16415,0.86782 1.41815,1.10066 0.381,0.33866 3.68297,1.46048 4.5508,1.52398 0.127,0.0212 1.65099,-0.57149 3.40781,-1.26999 z m -38.56538,29.50612 c -0.5715,-0.10583 -1.22766,-0.71966 -5.0588,-4.82596 l -4.40263,-4.72014 -2.62465,-7.38711 -2.62465,-7.36594 v -6.43462 -6.41346 l 1.39699,-4.78363 1.41816,-4.76246 1.67215,-2.26482 1.67216,-2.24365 3.9793,-1.52399 c 2.15898,-0.82549 4.84714,-1.86265 5.92663,-2.28598 l 1.96848,-0.762 3.40781,3.53481 3.40781,3.53481 2.11665,6.60395 2.11665,6.60395 0.127,6.26529 0.10583,6.26529 -1.39699,6.77328 -1.41816,6.77328 -1.96848,3.30198 -1.96849,3.30197 -3.19614,1.48166 c -1.75682,0.82549 -3.36547,1.48166 -3.59831,1.46049 -0.21166,-0.0212 -0.69849,-0.0635 -1.05832,-0.127 z m 8.5301,-9.12277 c 0.97366,-1.41815 1.86266,-2.89981 1.98966,-3.23847 0.127,-0.35983 0.38099,-2.77281 0.55032,-5.35513 0.254,-3.78881 0.27517,-4.88946 0.0847,-5.69379 -0.16933,-0.82549 -2.64581,-6.68862 -2.92098,-6.96378 -0.0423,-0.0423 -1.35466,-0.40217 -2.89981,-0.78316 l -2.81515,-0.71966 -1.24882,0.93132 c -0.69849,0.52916 -1.31232,0.88899 -1.37582,0.8255 -0.0635,-0.0635 -0.254,0.10583 -0.42333,0.38099 -0.16934,0.29633 -1.16416,1.016 -2.24366,1.65099 l -1.92615,1.14299 -1.33349,4.33914 -1.33349,4.33913 0.67733,2.05315 c 0.67733,2.01082 0.67733,2.03199 0.46566,3.53481 -0.127,0.82549 -0.25399,1.71449 -0.29633,1.96848 -0.0847,0.35984 0.23283,0.91017 1.46049,2.58232 l 1.54516,2.11665 3.28081,0.55033 3.30197,0.5715 1.86266,-0.80433 1.86265,-0.80433 z m -71.37347,4.27564 c -0.33867,-0.52917 -1.35466,-2.22249 -2.26482,-3.72531 -1.65099,-2.73048 -2.22248,-3.4078 -4.63546,-5.27046 l -0.59267,-0.46566 2.85748,-4.95297 c 1.56633,-2.73047 2.81515,-4.99529 2.79398,-5.01646 -0.0423,-0.0423 -1.39699,-1.05832 -3.00564,-2.26481 l -2.92098,-2.20132 -1.86265,1.96848 c -1.46049,1.54516 -2.28598,2.22249 -3.725309,3.13265 -1.015992,0.63499 -1.968485,1.18532 -2.095484,1.24882 -0.190499,0.0635 -0.507996,-1.22766 -1.312324,-5.22813 l -1.058325,-5.31279 1.396989,-8.5301 1.375823,-8.55127 3.36548,-6.26529 3.36547,-6.24412 2.18015,-1.35466 c 1.20649,-0.76199 2.22248,-1.33349 2.24365,-1.31232 0.0423,0.0423 -0.80432,2.51881 -1.86265,5.48212 l -1.92615,5.41863 0.19049,1.12183 c 0.23284,1.41815 0.23284,1.37582 -0.10583,1.37582 -0.33866,0 -0.33866,0.0423 0,6.85795 0.14817,2.89981 0.33867,5.41863 0.4445,5.60912 0.10583,0.1905 0.88899,1.03716 1.73565,1.88382 l 1.54516,1.52399 2.96331,0.27517 2.98448,0.27516 1.98965,-1.60865 c 1.07949,-0.889 1.98965,-1.62983 2.03198,-1.65099 0.0212,-0.0212 0.29633,-2.45532 0.59267,-5.43979 0.33866,-3.25965 0.65616,-5.60913 0.82549,-5.92663 0.33866,-0.63499 5.2493,-6.94261 5.41863,-6.94261 0.10583,0 0.95249,0.84666 3.49247,3.51364 l 0.97366,1.03716 -0.29633,2.68814 c -0.4445,4.23331 -0.635,3.66181 1.94732,5.86313 2.37065,2.01081 2.30715,1.98965 4.02164,1.67215 1.98965,-0.381 2.64581,-0.74083 4.0428,-2.13782 l 1.31232,-1.33349 0.82549,-3.06914 0.84667,-3.06914 -0.27517,-1.54516 -0.27516,-1.56632 -3.91581,-5.86312 c -2.98447,-4.50847 -4.50846,-6.58279 -6.49812,-8.91111 -1.41815,-1.67215 -2.70931,-3.17497 -2.83631,-3.3443 -0.23283,-0.27517 -0.16933,-0.29634 0.82549,-0.0635 0.59267,0.14816 1.90499,0.4445 2.94215,0.65616 l 1.84149,0.40216 6.32878,4.3603 6.32879,4.33914 0.508,1.56632 c 0.27516,0.86783 1.62982,4.9953 3.00564,9.18626 l 2.47648,7.59878 -0.1905,6.30762 -0.19049,6.28646 -2.39182,7.21778 -2.41298,7.19661 -3.11148,3.11148 c -1.71449,1.71448 -3.28081,3.42897 -3.49247,3.83113 -0.33867,0.65617 -0.381,0.67733 -0.61383,0.35983 -0.127,-0.19049 -1.39699,-2.62464 -2.81515,-5.41862 l -2.60348,-5.0588 -1.62982,-1.03716 -1.60865,-1.03716 -3.87348,-0.16933 c -2.13781,-0.10583 -3.95813,-0.10583 -4.06397,-0.0423 -0.0847,0.0635 -0.38099,0.16933 -0.63499,0.23283 -0.254,0.0635 -0.9525,0.4445 -1.56632,0.8255 -0.9525,0.61382 -1.143,0.84665 -1.43933,1.67215 -0.29633,0.86783 -0.48682,1.07949 -2.22248,2.37065 l -1.90498,1.41816 -1.52399,6.45578 c -0.84667,3.55597 -1.54516,6.47695 -1.58749,6.51928 -0.0212,0.0212 -0.33867,-0.38099 -0.67733,-0.93132 z"
         style="fill:#000000;fill-opacity:1;fill-rule:nonzero;stroke:none;stroke-width:0.264583"
         inkscape:connector-curvature="0" />
    </g>
    <path
       transform="matrix(0.92263647,0,0,1.0897996,-0.41473928,-25.94943)"
       sodipodi:nodetypes="aaaaaaaaaaaaaaaaa"
       d="m 45.09455,246.82097 c -0.57115,1.57719 -2.427798,2.36159 -3.873216,3.21277 -1.824047,1.07415 -3.950427,1.52276 -5.916235,2.30796 -1.897189,0.7578 -3.805121,1.49191 -5.673043,2.31923 -1.941386,0.85985 -3.918215,1.66822 -5.747306,2.74653 -1.519878,0.89602 -2.950456,1.94809 -4.309156,3.07362 -1.27844,1.05904 -2.008274,2.96085 -3.59603,3.44564 -1.429393,0.43643 -3.192941,0.0916 -4.417931,-0.76461 -1.46518,-1.02405 -2.2961262,-2.90108 -2.6746823,-4.64811 -0.3855784,-1.77944 -0.119957,-3.7329 0.5202371,-5.43738 0.8144382,-2.16838 2.3565912,-4.06825 4.0556142,-5.64259 2.106385,-1.9518 4.738213,-3.30454 7.357704,-4.48125 2.512609,-1.12869 5.205647,-1.85253 7.900816,-2.42105 2.007458,-0.42346 4.060182,-0.73946 6.11178,-0.7273 2.414528,0.0143 4.959449,-0.002 7.182309,0.94117 0.897987,0.38091 1.787539,0.98581 2.289963,1.8219 0.74275,1.23602 1.280174,2.89761 0.789176,4.25347 z"
       style="opacity:0.8;fill:#ffffff;stroke-width:0.714373;filter:url(#filter1661)"
       id="path858"
       inkscape:label="bloom" />
  </g>
</svg>
